<svg width="1439" height="175" viewBox="0 0 1439 175" fill="none" xmlns="http://www.w3.org/2000/svg">
<path d="M-1 166.5C-1 166.5 630 181.996 925.5 166.5C1059.72 166.263 1049.39 154.516 1055.5 151.004C1065.22 145.422 1074.83 138.105 1077 130.004C1080.08 118.511 1070.51 107.465 1045 115.004C1029.29 119.645 1021.14 134.504 1027.5 144.004C1035 155.215 1085.5 157.504 1083.5 113.004C1081.5 68.5036 1070.32 -26.8877 1087.5 10.5036C1096 29.0036 1093 32.5036 1103.5 40.0036C1109 43.9322 1117.5 42.5037 1125 55.0037C1132.5 67.5037 1133.71 75.3995 1129 80.5036C1123 87.0036 1116.5 82.0036 1123 75.5036C1130.24 68.2626 1132.5 71.0036 1145 71.0036C1155 71.0036 1314.17 71 1439 71" stroke="white" stroke-width="3"/>
</svg>
