<svg width="588" height="416" viewBox="0 0 588 416" fill="none" xmlns="http://www.w3.org/2000/svg">
<path d="M0.772882 208.377C0.786974 322.584 0.801067 403.378 0.808113 387.925L0.829252 359.824H23.0957C37.1813 359.824 45.4114 359.803 45.496 359.761C45.7144 359.641 45.7778 359.514 46.0244 358.69C46.9686 355.568 47.6099 352.489 47.9833 349.325C48.1313 348.092 48.1454 347.641 48.1454 344.956C48.1454 341.757 48.1101 341.243 47.7155 338.826C47.18 335.507 46.1442 332.146 44.5799 328.693C43.2341 325.727 41.7403 323.063 38.4778 317.828C34.6516 311.684 33.2001 308.886 32.1572 305.652C31.5794 303.855 31.4244 302.911 31.5513 301.981C31.8402 299.853 32.9112 297.711 35.2294 294.603C37.1108 292.088 38.8654 290.143 44.5517 284.287C47.9692 280.771 48.6316 280.074 49.759 278.798C51.2528 277.114 52.5987 275.303 53.113 274.282C54.4237 271.682 56.4671 263.74 59.2433 250.43C61.6884 238.733 64.7818 222.301 66.8182 210.238C67.1071 208.518 67.3537 207.102 67.3678 207.088C67.3819 207.074 67.8962 207.433 68.5163 207.891C70.757 209.547 73.3501 211.351 74.6396 212.133C75.3865 212.591 76.5632 213.162 77.0212 213.296C78.3389 213.676 78.501 212.767 77.444 211.013C76.5632 209.568 75.5767 208.265 71.4053 203.043C67.7483 198.463 66.487 196.969 62.9849 193.073C59.2645 188.929 57.8764 187.048 56.5587 184.378C53.719 178.6 51.9715 169.39 49.0262 144.594C48.8711 143.276 48.6668 141.55 48.5682 140.754C48.4695 139.957 48.3638 139.02 48.3215 138.675C48.2863 138.323 48.096 136.674 47.9058 135.011C47.7085 133.341 47.5323 131.713 47.5112 131.382C47.483 131.051 47.4478 130.706 47.4337 130.607C47.3703 130.205 47.4055 126.851 47.476 126.097C47.8776 122.032 49.301 119.269 51.5417 118.198C53.9445 117.05 57.1717 118.1 60.0184 120.946C61.7377 122.666 63.0554 124.646 64.211 127.246C65.5216 130.198 66.2826 133.362 66.642 137.407C67.1141 142.699 67.5369 146.243 68.0935 149.597C69.3337 157.031 71.2221 162.886 73.8152 167.318C74.7735 168.96 75.6895 170.221 77.1763 171.934C78.4305 173.378 79.9596 175.231 81.7282 177.444C83.5039 179.657 83.8773 180.079 84.3212 180.368C84.6736 180.587 84.9413 180.615 85.2373 180.46C85.505 180.326 85.6319 179.995 85.6107 179.438C85.5966 178.825 85.4909 178.353 84.6806 175.119C83.8985 172.011 83.1797 168.847 83.0529 167.96C82.9402 167.156 83.0106 165.197 83.1938 164.063C83.37 162.999 83.673 161.526 84.3353 158.475C86.0828 150.464 86.7029 147.229 87.3159 142.832C87.9008 138.668 88.7111 131.516 89.6765 122.01C89.8949 119.89 90.219 116.803 90.2824 116.232C90.3036 116.056 90.4163 115.013 90.5291 113.907C92.9248 91.1898 95.3699 77.3085 98.2518 70.1706C100.626 64.2799 103.861 61.3415 106.51 62.6522C108.702 63.7303 110.181 67.338 110.611 72.6509C110.667 73.3203 110.639 79.2463 110.576 80.1553C110.562 80.3314 110.534 81.2475 110.512 82.1987C110.484 83.1499 110.449 84.228 110.435 84.5944C110.421 84.9609 110.386 85.8628 110.364 86.6026C110.343 87.3355 110.308 88.2092 110.294 88.5404C110.28 88.8716 110.245 89.696 110.224 90.3725C110.202 91.0489 110.167 91.9226 110.153 92.3102C110.132 92.6977 110.104 93.4869 110.083 94.0718C110.061 94.6496 110.033 95.4458 110.012 95.8334C109.991 96.2209 109.963 97.0735 109.942 97.7359C109.921 98.3912 109.892 99.279 109.871 99.7088C109.808 101.153 109.73 103.274 109.589 107.037C109.484 109.933 109.484 109.989 109.343 114.577C109.308 115.817 109.258 117.261 109.237 117.783C109.167 119.749 109.11 122.363 109.019 127.154C108.962 130.431 108.962 143.65 109.019 144.876C109.145 147.532 109.3 148.913 109.533 149.28C109.977 149.991 110.534 149.801 111.034 148.758C111.894 146.976 112.795 143.072 114.522 133.7C115.198 130.036 115.297 129.663 115.903 128.74C116.368 128.028 116.932 127.464 125.761 118.966C129.89 114.999 140.1 105.156 148.45 97.1017C156.8 89.0477 163.917 82.2198 164.262 81.9239C165.643 80.733 167.708 79.5211 169.18 79.0349C170.498 78.598 171.012 78.5064 172.161 78.5064C173.119 78.5064 173.267 78.5275 173.746 78.6896C174.923 79.1054 175.592 79.6832 176.1 80.733C176.466 81.5082 176.607 82.0437 176.713 83.0443C177.023 85.9544 175.874 89.3155 173.105 93.656C170.244 98.1516 165.199 104.028 159.83 109.123L158.096 110.772L156.849 112.568C150.338 121.975 145.709 127.626 142.221 130.424C141.869 130.706 141.108 131.276 140.523 131.699C139.945 132.115 139.269 132.629 139.029 132.841C138.106 133.651 137.169 135.039 136.02 137.301C134.407 140.472 132.814 144.157 128.953 153.648C127.078 158.257 126.571 159.426 125.451 161.717C123.964 164.746 122.984 166.409 121.195 168.925C119.8 170.884 119.504 171.476 119.363 172.645C119.292 173.174 119.306 174.534 119.384 175.457C119.405 175.689 119.482 176.655 119.56 177.606C120.11 184.187 120.969 188.908 121.928 190.543C122.174 190.959 122.667 191.396 123.006 191.487C123.9 191.727 124.725 190.917 125.31 189.204C126.014 187.161 126.733 182.961 127.17 178.311C127.212 177.867 127.262 177.359 127.276 177.183C127.29 177.007 127.346 176.422 127.388 175.88C127.431 175.337 127.473 174.886 127.487 174.872C127.494 174.865 128.185 174.773 129.009 174.682C131.165 174.435 133.561 174.125 136.154 173.766C142.644 172.857 143.658 172.744 145.307 172.744C147.936 172.744 149.458 173.329 151.839 175.238C152.938 176.126 154.002 177.099 157.681 180.601C159.52 182.348 161.627 184.342 162.352 185.019C163.085 185.702 164.198 186.809 164.833 187.478C166.411 189.169 169.406 192.107 170.716 193.256C173.697 195.87 176.445 197.885 179.419 199.633C181.561 200.894 185.154 202.613 187.585 203.544C188.191 203.776 188.226 203.804 188.713 204.382C191.186 207.342 193.398 209.773 197.154 213.69C198.197 214.775 198.528 215.163 198.465 215.219C198.296 215.346 197.203 215.875 196.442 216.185C191.433 218.235 183.252 218.038 174.557 215.656C167.412 213.697 160.809 210.562 155.602 206.658C151.677 203.713 148.619 200.309 146.787 196.85C146.484 196.279 146.294 196.11 145.956 196.117C145.836 196.124 145.209 196.3 144.553 196.518C140.227 197.963 135.767 198.696 129.39 198.992C128.925 199.013 128.304 199.048 128.016 199.062C127.727 199.076 127.156 199.111 126.747 199.133C121.688 199.407 119.144 200.154 117.404 201.881C115.952 203.311 115.135 205.354 114.726 208.582C114.642 209.237 114.606 210.174 114.592 211.922C114.571 214.832 114.635 216.1 114.818 216.347C114.938 216.502 117.08 217.798 120.265 219.637C124.669 222.174 126.768 223.421 128.636 224.584C132.567 227.036 135.682 229.312 138.691 231.94C139.6 232.729 141.826 234.935 145.42 238.599C147.745 240.974 148.908 241.967 149.958 242.475C150.55 242.763 150.958 242.827 151.381 242.714C151.924 242.559 152.255 242.038 152.255 241.326C152.255 240.664 151.825 239.163 151.219 237.718C151.05 237.317 150.923 236.978 150.93 236.971C150.994 236.915 152.466 236.859 155.743 236.795C160.055 236.711 161.359 236.64 162.338 236.443C165.058 235.886 166.707 234.512 171.026 229.227C172.746 227.121 173.457 226.303 174.451 225.31C176.163 223.597 177.763 222.463 179.348 221.836C180.934 221.209 182.54 221.117 185.337 221.505C188.05 221.878 190.066 221.871 191.855 221.491C193.553 221.131 195.963 220.102 197.774 218.968C198.218 218.686 198.81 218.348 199.078 218.221C199.62 217.96 200.543 217.7 200.938 217.7C201.692 217.693 202.072 217.418 202.072 216.882C202.072 216.586 202.037 216.537 201.53 216.001L200.98 215.431L201.452 214.994C203.038 213.528 203.616 211.795 203.038 210.216C202.721 209.343 202.375 208.828 201.551 208.011C199.966 206.433 197.943 205.39 194.251 204.234C192.8 203.783 191.115 203.219 189.727 202.719C189.185 202.529 189.178 202.522 188.593 201.782C178.524 189.092 172.365 175.337 170.477 161.322C170.019 157.919 169.871 155.481 169.906 151.64C169.92 149.935 169.948 148.378 169.969 148.188C169.991 147.99 170.061 147.215 170.117 146.461C170.78 138.379 173.105 130.121 176.833 122.68C179.404 117.529 182.702 112.653 186.564 108.305C187.684 107.037 190.122 104.578 191.433 103.387C201.614 94.1422 214.185 88.484 227.475 87.1734C229.433 86.9761 230.991 86.9057 233.323 86.8986C236.149 86.8845 238.284 87.0043 240.827 87.3143C256.069 89.1464 270.633 96.397 283.88 108.728C285.572 110.299 288.778 113.555 290.455 115.401C291.335 116.366 291.899 116.937 291.998 116.951C292.378 117.015 292.639 116.881 293.034 116.43C305.647 102.154 320.282 92.6273 335.453 88.8223C339.673 87.7653 342.943 87.265 347.826 86.9409C348.833 86.8775 352.772 86.8775 353.991 86.9479C362.637 87.42 370.698 89.548 378.372 93.3742C384.629 96.4957 390.16 100.484 395.142 105.452C406.106 116.387 412.849 130.72 414.266 146.109C414.329 146.75 414.393 147.638 414.414 148.082C414.442 148.526 414.47 149.019 414.491 149.174C414.534 149.555 414.526 154.783 414.491 155.269C414.47 155.481 414.435 155.988 414.414 156.397C413.885 165.909 411.081 176.014 406.346 185.427C404.633 188.824 403.125 191.41 400.842 194.87L399.793 196.455L399.137 196.695C397.911 197.138 395.811 197.836 394.346 198.294C390.4 199.527 387.877 200.972 386.503 202.783C385.312 204.354 385.221 206.193 386.257 207.764C386.644 208.356 387.588 209.307 388.194 209.709C388.413 209.85 388.589 209.991 388.589 210.019C388.589 210.047 388.533 210.118 388.469 210.167C388.194 210.4 387.955 210.822 387.955 211.076C387.955 211.492 388.152 211.675 388.828 211.879C389.519 212.091 389.984 212.33 391.267 213.12C393.345 214.395 395.36 215.198 397.467 215.607C398.165 215.741 398.51 215.762 399.969 215.755C401.484 215.755 401.843 215.727 403.386 215.522C406.804 215.057 408.41 215.233 410.426 216.304C412.617 217.46 414.526 219.264 417.634 223.09C422.228 228.748 423.961 230.129 427.041 230.552C427.978 230.679 429.077 230.721 432.488 230.771C433.939 230.792 435.447 230.827 435.835 230.841C437.004 230.904 437.808 230.954 437.829 230.975C437.836 230.989 437.667 231.44 437.455 231.976C436.3 234.822 436.257 236.288 437.314 236.69C438.435 237.119 440.253 235.858 443.733 232.236C446.235 229.636 448.99 226.902 449.998 226.021C454.225 222.329 458.235 219.588 465.817 215.198C472.532 211.316 473.828 210.541 473.969 210.329C474.117 210.097 474.202 208.821 474.202 206.426C474.209 203.84 474.096 202.381 473.737 200.704C472.912 196.807 471.059 194.764 467.515 193.841C465.873 193.411 464.351 193.256 459.51 193.002C457.22 192.882 456.847 192.861 455.177 192.713C451.189 192.368 447.968 191.727 444.354 190.557L442.796 190.057L442.529 190.191C442.324 190.296 442.204 190.444 441.986 190.853C439.914 194.785 436.194 198.675 431.381 201.944C424.25 206.785 414.653 210.294 405.747 211.316C404.034 211.513 402.956 211.576 401.005 211.576C397.679 211.576 395.339 211.252 393.092 210.47C392.38 210.223 391.126 209.681 391.126 209.618C391.126 209.596 391.464 209.216 391.887 208.765C394.698 205.721 397.855 201.824 400.272 198.428L400.772 197.716L401.871 197.272C407.339 195.074 412.131 192.234 416.45 188.641C418.768 186.71 421.721 183.891 424.025 181.411C424.582 180.812 425.61 179.783 426.315 179.128C427.013 178.473 429.098 176.5 430.937 174.752C435.806 170.123 436.737 169.298 438.16 168.34C439.682 167.318 440.887 166.889 442.543 166.769C444.163 166.656 445.65 166.79 450.914 167.53C454.014 167.967 457.213 168.389 459.264 168.622C461.54 168.883 461.293 168.805 461.335 169.242C461.356 169.446 461.427 170.193 461.483 170.912C461.638 172.758 461.92 175.316 462.124 176.76C463.012 182.996 463.971 185.512 465.45 185.512C465.873 185.512 466.127 185.385 466.5 184.984C467.747 183.631 468.607 179.072 469.368 169.785C469.495 168.312 469.467 166.586 469.312 166.015C469.121 165.296 468.593 164.345 467.74 163.154C465.908 160.589 464.88 158.877 463.498 156.079C462.301 153.67 461.8 152.507 459.651 147.236C454.881 135.511 452.788 130.889 451.132 128.458C450.526 127.563 449.547 126.619 448.377 125.787C446.686 124.582 445.749 123.793 444.318 122.37C441.014 119.065 437.209 114.217 432.03 106.72L430.832 104.994L427.619 101.787C425.85 100.026 423.912 98.0388 423.306 97.3695C416.098 89.3789 412.391 83.2556 412.053 78.7883C411.856 76.1529 412.525 74.18 413.963 73.2005C416.232 71.6503 420.516 72.6861 424.222 75.6808C424.539 75.9345 431.092 82.2057 438.773 89.6114C446.46 97.0242 456.269 106.473 460.567 110.624C471.496 121.158 472.25 121.891 472.652 122.419C473.406 123.42 473.568 123.948 474.237 127.612C476.175 138.196 477.232 142.466 478.176 143.467C478.451 143.755 478.697 143.784 478.993 143.572C479.67 143.086 479.804 141.099 479.804 131.312C479.804 125.844 479.733 118.043 479.663 116.409C479.649 116.021 479.62 114.957 479.592 114.048C479.522 111.06 479.437 108.087 479.381 106.685C479.36 106.22 479.332 105.297 479.31 104.641C479.289 103.979 479.261 103.028 479.24 102.527C479.219 102.02 479.191 101.104 479.169 100.484C479.148 99.8638 479.099 98.6237 479.064 97.7359C479.029 96.841 478.979 95.5938 478.958 94.9526C478.937 94.3113 478.909 93.4235 478.888 92.9796C478.803 91.0066 478.74 89.3296 478.606 85.7923C478.585 85.2286 478.549 84.4394 478.535 84.0307C478.521 83.6221 478.486 82.7695 478.465 82.1282C478.444 81.487 478.409 80.5992 478.394 80.1553C478.38 79.7113 478.345 78.7248 478.324 77.9709C478.303 77.2169 478.268 76.3432 478.253 76.0332C478.105 73.123 478.077 67.4507 478.211 66.133C478.493 63.2652 479 61.1936 479.839 59.4672C480.551 58.0016 481.375 57.0715 482.376 56.5923C482.798 56.388 482.89 56.3739 483.573 56.3739C484.236 56.3809 484.363 56.4021 484.807 56.5923C487.597 57.7973 490.084 61.9123 491.966 68.4584C492.931 71.7983 493.946 76.4841 494.812 81.5997C496.193 89.7665 497.314 98.7012 498.97 114.788C500.717 131.791 501.422 137.47 502.465 143.009C502.852 145.059 503.571 148.491 504.36 152.098C505.805 158.673 506.016 160.286 505.664 162.315C505.502 163.267 504.762 166.487 504.043 169.327C503.219 172.596 503.141 172.991 503.176 173.632C503.205 174.224 503.367 174.47 503.782 174.548C504.36 174.661 504.804 174.238 506.988 171.511C508.778 169.284 510.117 167.671 511.717 165.803C512.252 165.183 512.9 164.387 513.161 164.042C515.458 160.97 517.269 157.186 518.657 152.521C520.285 147.081 521.236 141.353 522.082 131.946C522.349 128.951 522.603 127.38 523.139 125.357C524.844 118.875 528.628 113.745 532.827 112.195C534.54 111.561 535.97 111.596 537.407 112.301C538.204 112.688 539.169 113.639 539.719 114.577C540.86 116.543 541.382 118.995 541.382 122.504C541.382 124.575 541.367 124.723 540.719 130.36C537.041 162.16 535.343 171.842 532.32 178.177C531.792 179.283 531.27 180.192 530.502 181.341C529.501 182.834 528.529 184.018 525.563 187.33C522.124 191.177 521.081 192.41 517.424 196.983C513.753 201.571 512.647 203.008 511.745 204.368C510.843 205.742 510.476 206.7 510.695 207.116C510.737 207.201 510.899 207.306 511.047 207.349C511.695 207.546 513.253 206.785 515.951 204.953C516.966 204.269 519.32 202.592 520.637 201.62C521.046 201.324 521.398 201.098 521.419 201.127C521.44 201.155 521.504 201.444 521.553 201.775C521.68 202.621 522.617 208.152 523.005 210.301C528.332 240.29 533.208 262.86 535.413 267.743C535.935 268.912 536.745 270.11 538.105 271.738C539.423 273.316 540.325 274.289 543.855 277.911C545.137 279.228 546.631 280.764 547.167 281.328C553.297 287.698 556.221 291.778 557.074 295.104C557.299 295.999 557.306 297.26 557.081 298.098C556.552 300.064 555.841 301.924 554.826 303.982C553.804 306.047 552.881 307.674 550.774 311.064C550.232 311.937 549.464 313.17 549.069 313.812C543.742 322.415 541.523 328.08 540.74 335.092C540.564 336.656 540.564 341.116 540.74 342.807C541.093 346.211 541.748 349.374 542.847 353.017C542.939 353.313 543.066 353.574 543.171 353.673L543.347 353.835H565.635H587.93L587.951 384.93C587.958 402.025 587.972 322.584 587.986 208.377L588 0.743088H294.379H0.758789L0.772882 208.377ZM587.93 176.563V352.32H566.086H544.242L544.109 351.862C543.207 348.888 542.594 345.753 542.255 342.42C542.157 341.454 542.128 337.339 542.213 336.184C542.523 332.04 543.672 327.637 545.546 323.458C546.842 320.576 548.287 317.983 551.373 313.015C554.234 308.407 555.171 306.786 556.263 304.546C557.384 302.235 558.103 300.332 558.561 298.465C558.899 297.062 558.864 295.766 558.434 294.35C557.539 291.341 555.263 287.916 551.106 283.294C549.802 281.849 549.14 281.159 545.546 277.453C541.882 273.669 541.417 273.182 540.254 271.879C538.232 269.61 537.189 268.116 536.632 266.693C536.139 265.432 535.512 263.402 534.906 261.07C534.765 260.527 534.575 259.794 534.476 259.435C533.215 254.608 530.516 241.995 528.388 230.947C527.902 228.424 527.373 225.669 527.268 225.098C527.233 224.887 527.085 224.126 526.951 223.407C525.88 217.777 524.358 209.251 523.385 203.438C522.772 199.795 522.674 199.273 522.533 199.126C522.357 198.942 522.004 198.844 521.765 198.921C521.617 198.971 519.2 200.767 514.176 204.572C513.083 205.397 512.175 206.073 512.153 206.073C512.104 206.073 511.808 206.44 517.297 199.591C522.638 192.925 522.815 192.72 527.627 187.316C529.579 185.132 530.509 184.011 531.432 182.715C536.252 175.971 537.943 167.79 542.269 130.325C542.868 125.118 542.918 124.498 542.925 122.539C542.925 117.91 541.91 114.429 539.93 112.315C538.598 110.898 537.013 110.215 535.047 110.229C529.945 110.257 524.604 115.683 522.131 123.349C521.236 126.111 520.884 128.049 520.531 132.087C519.39 145.024 517.572 153.007 514.324 159.286C513.26 161.322 512.146 162.964 510.568 164.782C508.997 166.593 505.917 170.341 505.149 171.37L504.994 171.581L505.107 171.264C505.424 170.327 507.003 163.682 507.214 162.351C507.362 161.449 507.362 159.8 507.214 158.687C507.01 157.115 506.84 156.277 505.593 150.548C504.839 147.095 503.86 142.255 503.585 140.613C503.275 138.76 502.852 135.807 502.5 132.968C501.993 128.93 501.697 126.161 500.238 112.181C497.863 89.3789 496.074 77.6468 493.607 68.5993C491.303 60.1719 487.724 55.0914 483.884 54.8096C479.529 54.4925 476.555 60.2987 476.562 69.1278C476.562 70.1213 476.668 74.6662 476.703 75.3638C476.717 75.6527 476.753 76.5405 476.774 77.3367C476.795 78.1329 476.83 79.0983 476.844 79.4859C476.858 79.8734 476.894 80.8106 476.915 81.5645C476.936 82.3185 476.971 83.1429 476.985 83.3966C476.999 83.6503 477.034 84.5663 477.056 85.44C477.077 86.3138 477.112 87.1382 477.126 87.272C477.14 87.4059 477.175 88.181 477.197 88.9984C477.218 89.8087 477.253 90.6543 477.267 90.8657C477.288 91.0771 477.316 91.8522 477.337 92.592C477.359 93.3248 477.394 94.1845 477.408 94.4946C477.422 94.8046 477.457 95.629 477.478 96.3266C477.5 97.0242 477.528 97.8134 477.549 98.0882C477.563 98.3559 477.598 99.2297 477.619 100.026C477.64 100.822 477.676 101.689 477.69 101.964C477.704 102.231 477.739 103.204 477.76 104.113C477.781 105.022 477.817 105.924 477.831 106.121C477.845 106.311 477.88 107.312 477.901 108.341C477.922 109.369 477.958 110.426 477.972 110.701C477.993 110.969 478.021 112.047 478.042 113.097C478.063 114.14 478.098 115.302 478.113 115.669C478.127 116.035 478.162 117.747 478.183 119.474C478.204 121.2 478.239 123.307 478.253 124.16C478.296 126.527 478.296 139.422 478.246 140.26C478.19 141.346 478.091 142.219 478.014 142.353C477.958 142.466 477.936 142.459 477.873 142.283C477.831 142.177 477.732 141.479 477.655 140.733C476.915 133.912 476.767 132.883 475.745 127.33C475.005 123.321 474.878 122.898 474.005 121.658C473.518 120.968 472.504 119.974 456.833 104.881C448.856 97.1933 438.646 87.3566 434.143 83.0161C429.648 78.6826 425.653 74.8705 425.265 74.5534C423.736 73.2921 421.58 72.0731 419.938 71.5305C417.606 70.7625 415.45 70.7554 413.836 71.5235C413.181 71.8265 412.814 72.0802 412.342 72.5523C411.412 73.4894 410.862 74.6732 410.609 76.315C410.44 77.3649 410.496 79.3168 410.714 80.3314C412.053 86.5181 418.529 95.3753 428.957 105.275C429.422 105.712 429.789 106.191 430.641 107.425C435.898 115.056 440.429 120.784 443.663 123.906C444.847 125.047 445.791 125.83 447.264 126.879C449.307 128.331 450.026 129.247 451.569 132.333C453.035 135.272 454.853 139.492 458.312 148.011C460.447 153.268 461.258 155.114 462.533 157.594C463.717 159.913 464.929 161.886 466.444 163.971C467.282 165.127 467.677 165.881 467.832 166.614C467.973 167.262 467.938 168.587 467.719 171.088C467.289 176.091 466.775 179.762 466.204 181.883C466.049 182.475 465.563 183.863 465.486 183.948C465.436 184.004 465.338 183.8 465.077 183.137C464.161 180.756 463.414 176.077 462.885 169.362C462.829 168.573 462.752 167.875 462.716 167.812C462.533 167.466 462.47 167.452 459.778 167.142C456.692 166.783 455.402 166.614 451.153 166.015C446.087 165.303 445.601 165.254 443.586 165.247C442.162 165.24 441.704 165.261 441.211 165.367C439.506 165.712 438.012 166.445 436.328 167.762C435.038 168.77 433.96 169.749 430.303 173.237C428.774 174.696 426.773 176.584 425.864 177.437C423.898 179.269 424.159 179.008 422.235 181.052C415.872 187.809 409.996 192.1 402.886 195.187L402.35 195.419L403.316 193.897C406.057 189.55 408.382 185.096 410.256 180.601C413.582 172.603 415.541 164.204 415.985 156.044C416.084 154.177 416.034 148.794 415.908 147.18C414.984 135.871 411.652 125.724 405.761 116.303C402.4 110.92 398.503 106.311 393.345 101.632C392.486 100.85 390.541 99.279 389.117 98.208C381.092 92.1833 371.875 88.1317 362.165 86.3631C358.417 85.6725 354.886 85.3555 350.997 85.3555C348.481 85.3484 347.009 85.4189 344.62 85.6584C330.013 87.0959 315.659 93.6138 302.8 104.641C299.798 107.213 296.078 110.807 293.506 113.625C292.815 114.379 292.23 115.006 292.202 115.013C292.181 115.021 291.765 114.577 291.279 114.027C290.081 112.681 285.6 108.193 284.12 106.847C280.012 103.133 276.468 100.364 272.282 97.609C257.562 87.9062 241.483 83.8405 225.678 85.8346C215.446 87.117 205.638 90.922 197.07 96.9185C193.73 99.2508 191.144 101.428 188.121 104.458C185.655 106.924 184.076 108.721 182.16 111.23C176.783 118.283 172.844 126.33 170.582 134.877C169.356 139.499 168.645 144.136 168.391 149.104C168.321 150.513 168.363 155.396 168.454 156.678C169.138 165.909 171.238 174.132 175.12 182.827C175.783 184.3 177.312 187.372 178.157 188.915C180.215 192.685 182.914 196.843 185.64 200.471C185.993 200.936 186.268 201.324 186.261 201.331C186.225 201.366 184.478 200.563 183.188 199.915C177.093 196.864 171.872 192.784 165.897 186.379C165.284 185.716 164.227 184.659 163.536 184.025C162.261 182.834 161.049 181.686 158.04 178.818C153.333 174.322 151.734 173.005 149.909 172.145C148.372 171.419 147.393 171.229 145.173 171.236C143.299 171.236 142.707 171.3 137.387 172.046C133.913 172.533 129.812 173.054 127.734 173.28C126.501 173.413 126.24 173.491 126.092 173.78C126.028 173.907 125.944 174.527 125.873 175.527C125.43 181.348 124.669 186.365 123.893 188.598C123.59 189.458 123.386 189.937 123.316 189.937C123.231 189.937 122.752 188.584 122.519 187.682C121.913 185.308 121.406 181.496 120.941 175.739C120.885 175.076 120.849 174.125 120.856 173.625C120.885 172.159 121.054 171.779 122.59 169.608C124.14 167.417 124.972 166.057 126.155 163.76C127.501 161.146 128.213 159.539 130.482 153.966C136.295 139.697 138.064 135.976 139.91 134.151C140.156 133.912 140.833 133.362 141.425 132.939C143.102 131.741 143.877 131.093 145.237 129.761C148.732 126.337 152.424 121.644 158.505 112.885C159.252 111.814 159.372 111.681 160.922 110.208C163.297 107.953 166.362 104.719 168.518 102.21C173.824 96.0377 177.086 90.6472 178.002 86.5533C178.524 84.221 178.34 81.8252 177.516 80.113C176.234 77.4565 173.493 76.3996 169.976 77.2099C167.412 77.8018 164.734 79.3308 162.416 81.5152C161.951 81.9591 151.903 91.6408 140.086 103.035C128.276 114.422 117.975 124.343 117.199 125.09C114.381 127.788 113.965 128.451 113.437 131.143C112.401 136.371 111.717 140.93 111.21 145.954C111.027 147.8 110.921 148.434 110.822 148.434C110.717 148.434 110.604 147.708 110.541 146.623C110.491 145.757 110.52 127.493 110.576 126.133C110.59 125.9 110.618 124.47 110.639 122.962C110.667 121.447 110.703 119.946 110.717 119.615C110.731 119.284 110.766 118.142 110.787 117.078C110.815 116.014 110.844 114.999 110.858 114.823C110.872 114.647 110.9 113.696 110.928 112.709C110.949 111.723 110.985 110.722 110.999 110.49C111.013 110.257 111.048 109.419 111.069 108.622C111.09 107.826 111.125 106.861 111.14 106.473C111.161 106.086 111.21 104.895 111.245 103.831C111.281 102.767 111.33 101.499 111.351 101.012C111.372 100.526 111.4 99.6736 111.421 99.1099C111.443 98.5462 111.492 97.3272 111.527 96.397C111.562 95.4669 111.612 94.1986 111.633 93.5785C111.654 92.9585 111.689 92.1622 111.703 91.8169C111.724 91.4646 111.753 90.5979 111.774 89.8792C111.795 89.1605 111.823 88.3079 111.844 87.9767C111.858 87.6455 111.894 86.7929 111.915 86.0742C111.936 85.3555 111.971 84.376 111.985 83.8898C112.345 74.2857 112.267 71.608 111.513 68.3174C110.026 61.7714 106.165 59.1149 102.12 61.8559C101.585 62.2223 100.57 63.1947 100.02 63.8782C97.7163 66.732 95.9266 71.143 94.3341 77.8652C92.192 86.9479 90.5572 98.525 88.239 121.024C88.1404 121.975 87.9853 123.511 87.8867 124.441C86.7311 135.659 85.9771 141.86 85.202 146.496C84.9131 148.223 84.1803 151.894 83.4405 155.34C83.1516 156.678 82.7217 158.658 82.4892 159.744C81.5027 164.317 81.2843 166.156 81.5098 168.023C81.6507 169.143 83.4757 176.915 83.7012 177.338C83.7434 177.416 83.7575 177.493 83.7434 177.514C83.7223 177.529 83.673 177.479 83.6237 177.402C83.4405 177.049 80.2062 173.096 78.2332 170.806C76.7112 169.031 75.8445 167.812 74.851 166.015C72.8216 162.358 71.3771 158.165 70.1652 152.38C69.4323 148.899 68.7982 144.199 68.2626 138.252C68.009 135.448 67.8469 134.25 67.5157 132.629C66.642 128.373 64.8734 124.406 62.5622 121.482C60.3144 118.649 57.6368 116.831 54.9803 116.338C54.1982 116.19 52.6057 116.225 51.9504 116.409C51.281 116.592 50.1465 117.177 49.5617 117.642C47.7296 119.1 46.5459 121.658 46.0244 125.294C45.8905 126.224 45.8342 129.98 45.9328 131.135C46.0103 132.037 46.722 138.224 47.3773 143.713C50.52 170.137 52.2534 179.29 55.2622 185.294C56.4741 187.703 57.9468 189.733 60.8358 192.974C66.3601 199.175 65.9937 198.731 72.4834 206.841C74.8228 209.765 76.6971 212.126 76.6407 212.091C76.5844 212.063 75.6895 211.386 74.6396 210.597C70.9825 207.821 67.4241 205.157 67.1916 205.016C67.0648 204.939 66.8886 204.875 66.797 204.875C66.5786 204.875 66.2404 205.059 66.1488 205.228C66.1065 205.305 65.7894 207.06 65.4441 209.124C64.8311 212.774 64.2885 215.917 63.6403 219.496C63.4641 220.462 63.2457 221.688 63.1541 222.209C61.6743 230.411 59.2574 242.883 57.827 249.725C54.7407 264.466 52.81 271.872 51.4853 274.056C50.2663 276.071 48.6386 277.904 42.4731 284.231C35.7227 291.151 32.8971 294.66 31.1919 298.204C30.6352 299.367 30.3463 300.184 30.142 301.199C30.0152 301.819 29.994 302.094 30.0222 302.925C30.0504 303.771 30.0927 304.045 30.3041 304.828C31.1919 308.076 32.6082 311.12 35.2858 315.573C35.9129 316.616 36.1102 316.926 38.0621 320.076C41.6909 325.931 43.5018 329.546 44.8547 333.689C45.7144 336.304 46.3556 339.446 46.5247 341.821C46.5529 342.166 46.5811 342.547 46.6022 342.666C46.6586 343.089 46.6304 346.915 46.5599 347.81C46.3133 350.896 45.7285 354.131 44.8829 357.111L44.5447 358.309L22.687 358.33L0.829252 358.344V179.579V0.813553H294.379H587.93V176.563ZM504.564 172.512C504.318 173.061 504.247 173.153 504.149 173.054C504.106 173.012 504.191 172.822 504.409 172.512C504.593 172.251 504.748 172.039 504.755 172.039C504.769 172.039 504.684 172.251 504.564 172.512ZM84.434 178.593C84.6736 178.917 84.7017 179.086 84.5326 179.086C84.4904 179.086 84.3847 178.91 84.286 178.698C84.0253 178.106 84.0605 178.085 84.434 178.593ZM444.283 192.164C448.314 193.46 452.823 194.2 458.489 194.482C463.498 194.729 464.957 194.87 466.542 195.264C470.418 196.229 472.123 198.66 472.581 203.854C472.666 204.763 472.687 208.582 472.609 209.103C472.588 209.279 472.532 209.455 472.49 209.498C472.37 209.61 470.622 210.646 467.437 212.485C465.944 213.352 464.252 214.332 463.668 214.67C455.163 219.602 450.167 223.351 445.065 228.657C441.281 232.589 440.231 233.617 439.118 234.463C438.653 234.815 438.195 235.104 438.103 235.104C438.089 235.104 438.103 234.942 438.139 234.745C438.23 234.23 438.702 232.927 439.196 231.799C439.865 230.284 439.858 230.306 439.738 229.988C439.583 229.573 439.337 229.488 438.16 229.439C437.617 229.411 436.983 229.375 436.751 229.361C436.159 229.319 434.129 229.263 431.325 229.22C427.534 229.157 426.555 229.016 425.195 228.347C423.489 227.508 422.024 226.057 418.642 221.892C416.478 219.229 415.069 217.749 413.498 216.481C411.722 215.05 410.172 214.268 408.368 213.888C407.36 213.669 405.556 213.676 403.985 213.888C400.328 214.388 398.771 214.374 396.629 213.817C395.755 213.592 394.515 213.127 393.627 212.676C392.944 212.337 391.957 211.774 391.985 211.738C391.999 211.731 392.281 211.816 392.605 211.929C393.845 212.373 395.508 212.718 397.467 212.957C398.912 213.134 402.97 213.127 404.76 212.957C416.45 211.809 428.295 206.989 436.293 200.126C437.392 199.189 439.407 197.146 440.253 196.124C441.183 194.989 442.078 193.742 442.719 192.671C442.994 192.213 443.233 191.84 443.247 191.84C443.268 191.84 443.733 191.988 444.283 192.164ZM145.92 198.442C148.978 203.572 153.967 208.053 160.746 211.781C167.158 215.304 175.099 217.876 182.272 218.757C184.527 219.031 185.795 219.102 188.191 219.074C191.616 219.038 193.793 218.728 196.104 217.946C196.499 217.812 196.823 217.714 196.837 217.721C196.872 217.756 195.231 218.637 194.568 218.947C193.039 219.651 191.186 220.138 189.706 220.222C188.677 220.286 187.289 220.215 185.866 220.025C183.195 219.673 181.857 219.623 180.595 219.842C177.558 220.377 174.592 222.526 171.09 226.726C170.752 227.142 169.998 228.058 169.413 228.762C166.383 232.462 164.776 233.934 163.043 234.604C161.923 235.034 160.837 235.16 157.941 235.21C153.382 235.287 150.557 235.386 149.676 235.499C149.479 235.52 149.324 235.597 149.19 235.738C148.887 236.055 148.929 236.323 149.436 237.465C150.162 239.085 150.775 240.854 150.691 241.101C150.662 241.192 149.782 240.586 149.014 239.945C148.344 239.381 146.414 237.465 143.517 234.477C138.317 229.101 133.73 225.676 124.845 220.518C123.626 219.807 121.371 218.503 119.842 217.608C118.313 216.713 116.861 215.868 116.622 215.734L116.192 215.48L116.157 215.093C116.079 214.247 116.164 209.78 116.269 208.997C116.579 206.75 117.094 205.207 117.939 203.959C118.306 203.417 119.236 202.557 119.814 202.212C121.462 201.232 123.337 200.859 127.804 200.612C131.419 200.422 131.609 200.408 133.476 200.26C137.507 199.929 141.876 199.076 144.892 198.019C145.166 197.928 145.42 197.843 145.469 197.836C145.512 197.836 145.716 198.104 145.92 198.442ZM398.024 198.9C397.122 200.182 394.684 203.234 392.965 205.228C391.534 206.891 389.766 208.821 389.674 208.821C389.526 208.821 388.497 208.011 388.053 207.546C387.018 206.454 386.806 205.481 387.363 204.319C387.56 203.896 387.743 203.663 388.293 203.114C389.716 201.697 391.492 200.796 395.072 199.675C395.945 199.4 396.974 199.062 397.362 198.928C397.749 198.794 398.094 198.682 398.123 198.682C398.158 198.675 398.108 198.78 398.024 198.9ZM191.792 205.051C192.081 205.15 193.025 205.453 193.892 205.728C194.765 206.003 195.794 206.355 196.182 206.51C198.902 207.588 200.734 208.927 201.452 210.357C201.664 210.78 201.685 210.893 201.685 211.435C201.685 211.992 201.664 212.077 201.41 212.591C201.199 213.014 201.001 213.275 200.543 213.733C200.219 214.05 199.93 214.31 199.902 214.31C199.754 214.282 193.948 208.088 192.25 206.144C191.827 205.657 191.397 205.178 191.299 205.066C191.08 204.833 191.13 204.826 191.792 205.051Z" fill="black" fill-opacity="0.8"/>
<path d="M473.166 213.443C472.969 213.542 472.722 213.901 472.722 214.092C472.722 214.127 472.624 214.366 472.511 214.627C472.053 215.628 471.221 218.305 470.334 221.589C469.692 223.971 468.509 228.48 468.043 230.348C465.338 241.185 463.724 251.296 463.315 259.977C463.294 260.464 463.259 261.048 463.238 261.281C463.167 262.267 463.146 267.003 463.21 268.821C463.428 274.761 464.006 279.756 465.112 285.161C465.768 288.353 467.029 293.06 467.402 293.694C467.487 293.849 467.628 294.039 467.712 294.11C467.797 294.187 467.86 294.272 467.86 294.307C467.86 294.427 467.656 294.356 467.522 294.187C467.24 293.835 466.677 293.426 465.5 292.729C464.844 292.341 463.682 291.658 462.928 291.207C455.085 286.57 450.202 282.73 448.039 279.51C447.179 278.241 446.771 277.283 446.158 275.169C445.735 273.682 445.418 272.837 444.953 271.949C443.099 268.405 437.977 264.508 428.471 259.4C424.575 257.3 418.48 254.298 412.652 251.592C409.798 250.268 407.72 249.063 404.866 247.061C399.307 243.165 393.303 237.626 388.779 232.215C387.053 230.143 385.009 227.311 383.812 225.331C382.677 223.456 381.529 221.089 381.162 219.877C381.057 219.524 380.916 219.214 380.817 219.13C380.613 218.94 380.288 218.883 380.049 218.989C379.943 219.038 378.372 220.518 376.561 222.287C363.821 234.681 352.406 244.912 327.673 266.101C313.045 278.629 312.615 279.002 307.662 283.294C302.152 288.078 297.043 292.602 293.485 295.857C292.815 296.47 292.245 296.971 292.216 296.971C292.181 296.971 291.35 296.238 290.363 295.336C283.81 289.382 277.736 284.09 260.275 269.131C249.727 260.09 246.119 256.99 242.307 253.678C229.25 242.333 219.104 233.145 210.726 225.077C209.027 223.442 208.865 223.329 208.457 223.506C208.097 223.661 207.999 223.83 207.921 224.415C207.724 225.986 206.871 228.043 205.293 230.763C200.776 238.557 191.475 248.062 182.59 253.953C179.912 255.721 178.693 256.398 175.12 258.061C169.286 260.781 165.227 262.782 160.711 265.178C154.834 268.285 150.106 271.322 147.309 273.781C145.589 275.289 144.483 276.642 143.701 278.206C143.271 279.045 143.088 279.552 142.602 281.222C141.989 283.322 141.622 284.167 140.805 285.415C139.318 287.662 136.506 290.206 132.328 293.095C130.186 294.575 128.002 295.928 123.125 298.81C122.428 299.225 121.829 299.634 121.533 299.909C121.089 300.325 120.899 300.437 120.899 300.296C120.899 300.261 120.983 300.163 121.082 300.064C121.392 299.775 121.519 299.5 121.885 298.274C123.323 293.532 124.535 287.331 125.084 281.927C125.458 278.284 125.599 275.493 125.599 271.533C125.599 259.858 123.844 248.14 119.736 232.454C117.171 222.66 116.241 219.82 115.459 219.419C115.269 219.32 115.234 219.32 115.079 219.419C114.628 219.722 114.529 220.328 114.522 222.702C114.522 225.161 114.585 226.395 114.952 230.911C115.635 239.487 116.227 245.208 117.693 257.405C118.792 266.537 119.222 270.829 119.384 274.176C119.405 274.641 119.44 275.212 119.461 275.444C119.504 275.944 119.504 281.497 119.461 281.751C119.447 281.849 119.412 282.293 119.384 282.737C119.151 286.986 118.165 291.235 116.488 295.223C113 303.503 105.404 312.212 91.2127 324.198C90.2755 324.987 89.3736 325.776 89.2185 325.945C89.0565 326.107 85.935 329.673 82.2779 333.858C75.0625 342.123 68.0302 350.163 62.365 356.646C58.4895 361.078 58.5459 361.001 58.7784 361.494C58.9405 361.839 59.2434 361.945 59.9269 361.903C60.2299 361.888 62.4566 361.853 64.8805 361.832C67.3044 361.804 69.827 361.776 70.4823 361.762C71.1447 361.748 73.618 361.712 75.9785 361.691C78.3461 361.67 80.8827 361.642 81.6156 361.621C82.3554 361.6 84.5257 361.571 86.4423 361.55C94.151 361.473 96.5679 361.445 98.3858 361.409C99.4357 361.388 101.951 361.36 103.988 361.339C106.024 361.318 108.483 361.29 109.449 361.268C110.421 361.247 112.619 361.219 114.346 361.198C121.906 361.113 123.661 361.085 125.585 361.057C127.501 361.029 129.34 361.008 137.458 360.916C139.262 360.895 141.622 360.867 142.707 360.846C143.792 360.824 146.407 360.789 148.52 360.768C150.634 360.747 153.918 360.705 155.813 360.669C157.716 360.641 160.203 360.606 161.345 360.606C162.486 360.599 165.108 360.564 167.158 360.529C169.216 360.493 172.859 360.444 175.261 360.423C177.664 360.402 180.299 360.366 181.11 360.352C181.927 360.338 184.809 360.303 187.522 360.282C190.235 360.254 192.497 360.226 192.546 360.211C192.595 360.19 193.61 360.176 194.801 360.176C195.992 360.169 198.613 360.141 200.628 360.106C202.643 360.071 206.23 360.028 208.59 360C210.958 359.979 213.396 359.944 214.016 359.93C214.636 359.915 216.905 359.88 219.054 359.859C223.028 359.824 226.382 359.782 230.575 359.718C231.857 359.697 234.521 359.669 236.494 359.648C238.474 359.627 240.884 359.591 241.849 359.577C242.822 359.563 245.069 359.528 246.852 359.507C252.581 359.443 255.893 359.401 258.021 359.366C259.162 359.345 261.572 359.317 263.376 359.295C269.316 359.232 272.677 359.19 275.319 359.154C276.757 359.133 279.244 359.105 280.851 359.084C282.457 359.063 284.712 359.035 285.854 359.014C286.995 358.992 289.363 358.964 291.103 358.943C296.663 358.88 299.855 358.837 301.954 358.802C303.082 358.781 305.506 358.753 307.345 358.732C313.052 358.668 316.653 358.626 319.183 358.591C320.521 358.57 323.122 358.541 324.961 358.52C326.8 358.499 330.323 358.45 332.782 358.415C335.241 358.379 338.983 358.33 341.097 358.309C343.211 358.288 345.67 358.253 346.558 358.238C347.453 358.224 349.799 358.189 351.772 358.168C355.894 358.126 360.157 358.076 363.61 358.027C364.927 358.006 367.436 357.978 369.176 357.957C370.924 357.935 373.27 357.907 374.391 357.886C375.518 357.872 378.005 357.837 379.922 357.816C381.839 357.795 385.475 357.745 387.99 357.71C390.513 357.675 394.127 357.625 396.023 357.604C397.925 357.583 400.666 357.555 402.118 357.534C403.57 357.513 407.396 357.463 410.609 357.428C413.829 357.393 417.507 357.344 418.783 357.322C420.981 357.287 422.75 357.266 429.528 357.182C431.1 357.16 433.319 357.132 434.461 357.111C435.602 357.09 438.061 357.062 439.922 357.041C447.961 356.956 449.963 356.928 451.724 356.9C452.753 356.879 455.431 356.85 457.678 356.829C459.926 356.808 462.336 356.78 463.034 356.759C463.731 356.738 467.233 356.688 470.82 356.653C474.406 356.618 478.113 356.568 479.064 356.547C480.015 356.533 482.326 356.498 484.208 356.477C491.233 356.406 494.094 356.371 496.187 356.336C497.37 356.315 499.907 356.287 501.824 356.265C503.74 356.244 505.96 356.209 506.756 356.195C507.552 356.181 509.976 356.146 512.146 356.125C514.317 356.103 518.058 356.054 520.461 356.019C522.864 355.984 525.859 355.948 527.12 355.941C528.769 355.927 529.473 355.899 529.636 355.836C530.009 355.688 530.199 355.131 529.988 354.786C529.939 354.701 527.684 352.101 524.971 349.008C518.869 342.032 513.668 336.071 505.671 326.918L499.484 319.836L497.497 318.145C483.595 306.328 476.591 298.45 472.772 290.312C470.799 286.112 469.657 281.455 469.361 276.431C469.277 275.007 469.305 269.328 469.403 267.834C469.692 263.388 470.009 260.351 471.376 248.915C472.377 240.579 473.053 234.138 473.497 228.903C473.533 228.417 473.631 227.289 473.709 226.402C473.878 224.415 474.11 221.18 474.167 220.13C474.188 219.701 474.223 219.179 474.244 218.961C474.258 218.742 474.28 217.805 474.28 216.882C474.28 214.719 474.167 213.894 473.814 213.514C473.617 213.302 473.483 213.288 473.166 213.443ZM473.54 215.423C473.511 215.691 473.335 216.995 473.145 218.334C472.708 221.42 472.363 224.415 472.088 227.459C471.348 235.731 470.855 240.438 469.664 250.359C468.572 259.456 468.206 262.93 467.973 266.319C467.91 267.193 467.846 268.059 467.825 268.257C467.811 268.447 467.776 269.37 467.755 270.3C467.733 271.23 467.698 272.153 467.684 272.358C467.642 272.816 467.762 276.473 467.86 277.664C468.516 285.57 471.024 292.031 476.09 298.873C480.417 304.707 486.681 310.986 496.37 319.202L498.364 320.893L502.613 325.755C504.952 328.432 509.687 333.851 513.14 337.804C526.141 352.679 527.606 354.356 527.592 354.37C527.571 354.384 518.016 354.525 513.697 354.574C511.836 354.596 509.504 354.631 508.518 354.645C506.728 354.673 503.409 354.715 496.856 354.786C494.96 354.807 492.501 354.835 491.395 354.856C490.289 354.877 487.738 354.906 485.723 354.927C483.707 354.948 481.375 354.983 480.544 354.997C479.712 355.011 477.415 355.046 475.435 355.068C473.462 355.089 469.685 355.138 467.05 355.173C461.596 355.251 457.664 355.3 452.64 355.349C450.724 355.371 448.279 355.399 447.215 355.42C446.151 355.441 443.536 355.469 441.401 355.49C439.273 355.512 436.863 355.54 436.046 355.561C435.236 355.582 433.108 355.61 431.325 355.631C426.928 355.681 422.912 355.73 420.579 355.772C419.515 355.793 417.056 355.822 415.118 355.843C410.144 355.892 405.895 355.948 403.351 355.984C402.153 356.005 399.581 356.033 397.644 356.054C395.706 356.075 392.105 356.125 389.646 356.16C387.187 356.195 383.586 356.244 381.648 356.265C379.711 356.287 377.223 356.315 376.117 356.336C375.011 356.357 372.538 356.385 370.621 356.406C366.139 356.449 361.82 356.505 358.924 356.547C357.663 356.568 355.189 356.597 353.428 356.618C351.666 356.639 349.306 356.667 348.178 356.688C347.058 356.709 344.549 356.738 342.612 356.759C340.674 356.78 337.045 356.829 334.544 356.864C332.042 356.9 328.385 356.949 326.405 356.97C324.432 356.991 321.733 357.019 320.416 357.041C319.098 357.062 316.611 357.09 314.884 357.111C310.389 357.16 304.773 357.238 298.713 357.322C297.438 357.344 294.802 357.372 292.865 357.393C290.927 357.414 288.517 357.442 287.509 357.463C285.67 357.499 282.401 357.534 275.918 357.604C274.002 357.625 271.62 357.654 270.633 357.675C269.647 357.696 267.124 357.724 265.032 357.745C262.939 357.766 260.501 357.795 259.606 357.816C258.718 357.837 256.527 357.865 254.744 357.886C248.79 357.957 245.598 357.992 243.505 358.027C241.328 358.062 237.565 358.105 231.632 358.168C229.694 358.189 227.298 358.217 226.312 358.238C225.326 358.26 222.725 358.288 220.534 358.309C218.343 358.33 216.031 358.365 215.39 358.379C214.749 358.393 212.438 358.429 210.246 358.45C208.055 358.471 204.377 358.52 202.073 358.556C199.768 358.591 196.013 358.64 193.723 358.661C191.44 358.682 188.854 358.711 187.98 358.732C187.106 358.753 184.189 358.781 181.497 358.809C178.806 358.83 176.558 358.859 176.509 358.873C176.459 358.894 175.445 358.908 174.254 358.908C173.063 358.915 170.442 358.943 168.426 358.978C166.411 359.014 162.86 359.056 160.534 359.084C158.209 359.105 155.736 359.14 155.038 359.154C154.341 359.169 152.121 359.204 150.106 359.225C145.321 359.274 140.967 359.324 137.951 359.366C136.612 359.387 134.139 359.415 132.455 359.436C130.771 359.457 128.488 359.486 127.381 359.507C126.275 359.528 123.95 359.556 122.202 359.577C115.501 359.655 112.972 359.683 111.034 359.718C109.928 359.739 107.504 359.768 105.644 359.789C101.599 359.831 97.3923 359.88 93.7 359.93C86.6678 360.021 85.336 360.042 83.1305 360.071C79.5017 360.127 75.6896 360.169 71.8564 360.211C69.9398 360.233 67.847 360.268 67.2058 360.282C65.0426 360.338 61.2869 360.338 61.2869 360.275C61.2939 360.24 62.6609 358.64 64.3379 356.723C68.1711 352.348 74.1746 345.471 83.3349 334.986L90.4798 326.812L91.6495 325.832C99.8092 318.983 106.073 312.959 110.343 307.85C115.607 301.537 118.729 295.582 120.096 289.227C120.582 286.944 120.927 284.196 121.026 281.715C121.11 279.785 121.054 275.296 120.934 274.07C120.92 273.894 120.885 273.436 120.864 273.048C120.842 272.661 120.807 272.168 120.793 271.956C120.772 271.745 120.709 270.998 120.652 270.3C120.406 267.468 120.06 264.276 119.208 257.124C117.862 245.828 117.418 241.671 116.847 235.174C116.446 230.58 116.185 228.29 115.586 223.971C115.184 221.11 115.163 220.941 115.248 220.941C115.29 220.941 115.501 221.695 115.72 222.611C116.354 225.253 118.01 231.905 118.82 235.069C121.899 247.083 123.436 256.504 123.964 266.566C124.056 268.313 124.063 275.846 123.971 276.571C123.957 276.726 123.922 277.22 123.894 277.664C123.675 281.983 122.872 287.775 121.885 292.144C121.272 294.843 120.892 296.301 120.258 298.345C120.025 299.077 119.786 299.944 119.722 300.261C119.609 300.783 119.609 300.874 119.701 301.142C119.934 301.804 120.568 301.924 121.505 301.487C121.97 301.269 123.605 300.325 126.853 298.387C135.964 292.968 140.946 288.783 142.876 284.943C143.327 284.041 143.56 283.406 144.053 281.715C144.927 278.756 145.561 277.65 147.492 275.726C150.24 272.985 154.658 270.096 162.296 266.058C165.199 264.522 172.154 261.119 176.53 259.097C179.087 257.913 180.271 257.272 182.413 255.912C191.82 249.929 201.904 239.754 206.723 231.369C207.71 229.65 208.901 227.085 209.126 226.197C209.168 226.021 209.239 225.873 209.274 225.873C209.316 225.873 210.028 226.535 210.873 227.339C217.152 233.384 226.284 241.692 235.895 250.12C242.469 255.876 246.183 259.082 260.311 271.188C277.074 285.548 283.112 290.812 289.905 297.006C290.758 297.781 291.561 298.5 291.688 298.612C291.942 298.817 292.301 298.866 292.569 298.718C292.653 298.676 293.421 297.999 294.274 297.217C300.742 291.298 307.14 285.718 323.939 271.329C344.754 253.495 352.138 247.054 361.602 238.458C367.838 232.793 375.567 225.5 378.971 222.075C379.471 221.568 379.901 221.152 379.929 221.152C379.95 221.152 380.063 221.363 380.169 221.624C381.536 224.894 384.108 228.938 387.278 232.807C393.416 240.297 402.273 247.872 409.348 251.677C410.292 252.191 410.383 252.233 413.357 253.622C417.416 255.517 419.304 256.426 422.94 258.258C432.431 263.035 438.068 266.545 441.218 269.652C443.128 271.54 443.86 272.795 444.678 275.578C445.22 277.431 445.382 277.882 445.883 278.89C447.68 282.49 451.844 286.162 459.658 291.023C461.603 292.228 466.782 295.272 467.29 295.505C468.149 295.9 468.748 295.815 469.03 295.265C469.22 294.899 469.122 294.293 468.572 292.524C466.733 286.549 465.436 279.573 464.971 273.084C464.936 272.52 464.887 271.872 464.866 271.639C464.725 269.807 464.682 264.72 464.774 261.563C465.056 252.445 466.789 241.474 469.833 229.537C471.228 224.083 472.208 220.159 472.765 217.84C473.103 216.424 473.406 215.198 473.434 215.106C473.547 214.817 473.589 214.951 473.54 215.423Z" fill="black" fill-opacity="0.8"/>
<path d="M147.618 415.962C228.341 415.976 360.417 415.976 441.133 415.962C521.856 415.955 455.81 415.948 294.379 415.948C132.947 415.948 66.9021 415.955 147.618 415.962Z" fill="black" fill-opacity="0.8"/>
</svg>
