<svg width="1440" height="254" viewBox="0 0 1440 254" fill="none" xmlns="http://www.w3.org/2000/svg">
<path d="M733 182C972.319 182 1206.81 182 1447 182" stroke="white" stroke-width="2" stroke-linecap="round"/>
<path d="M215.365 0.258924C210.42 1.13575 207.385 5.39616 205.688 13.8497C204.845 18.009 204.205 24.1131 203.935 30.3745C203.901 31.2064 203.845 32.1732 203.823 32.5104C203.8 32.8477 203.744 34.4213 203.71 35.9951C203.665 37.5689 203.609 39.3452 203.587 39.9297C203.553 40.5143 203.497 49.1363 203.463 59.0962C203.418 72.5071 203.373 77.2398 203.283 77.3522C203.092 77.577 199.709 80.2637 198.091 81.4778C193.348 85.0413 187.245 88.9421 181.85 91.8873C180.771 92.4719 178.984 93.4498 177.871 94.0456C168.419 99.1942 160.608 105.68 154.595 113.392C153.437 114.876 151.122 118.327 150.178 119.968C145.997 127.309 143.569 135.369 143.086 143.575C142.974 145.43 143.03 149.297 143.187 150.882C143.255 151.467 143.333 152.254 143.367 152.625C143.468 153.647 143.929 156.345 144.266 157.818C146.342 167.149 151.175 175.518 157.626 181.704C156.323 181.73 157.295 181.748 157.709 181.783C158.639 182.67 159.498 183.652 160.496 184.438C164.317 187.462 168.655 189.687 173.23 191.014C178.782 192.61 186.323 192.824 193.146 191.565C196.956 190.868 201.923 189.249 204.812 187.788C205.115 187.641 205.396 187.551 205.43 187.585C205.621 187.776 205.733 204.166 205.565 207.82C205.171 216.296 204.441 221.534 202.856 226.964C201.665 231.078 199.496 235.811 197.338 239.037C195.82 241.308 193.629 243.68 191.505 245.332C187.537 248.435 182.468 250.469 177.096 251.11C170.869 251.852 164.216 250.75 158.585 248.03C156.775 247.164 156.798 247.209 158.034 246.771C167.722 243.32 173.983 238.317 176.601 231.932C177.826 228.942 178.265 226.537 178.209 223.108C178.164 220.781 178.017 219.792 177.455 217.937C175.556 211.732 170.206 207.505 163.317 206.752C162.125 206.617 159.821 206.65 158.81 206.808C153.258 207.696 148.908 210.416 145.952 214.834C143.547 218.443 142.243 223.423 142.434 228.279C142.693 234.495 145.143 239.824 149.83 244.354C150.47 244.972 151.279 245.714 151.617 245.995L152.235 246.512L150.324 246.973C146.492 247.906 141.872 248.738 137.455 249.312C136.747 249.402 135.983 249.492 135.769 249.525C132.499 249.964 124.912 250.571 119.697 250.818C118.371 250.874 116.854 250.953 116.326 250.986C115.797 251.02 114.033 251.065 112.392 251.11C110.751 251.144 109.189 251.2 108.908 251.245C108.767 251.262 41.7389 251.278 -4.19946 251.296C-3.86799 252.023 -3.59155 252.663 -3.35669 253.208C43.3927 253.19 111.648 253.173 111.774 253.156C112.021 253.111 113.313 253.055 114.64 253.021C115.966 252.976 117.539 252.92 118.124 252.898C121.046 252.752 123.631 252.605 124.081 252.56C124.362 252.538 125.092 252.482 125.71 252.448C126.329 252.414 127.059 252.369 127.34 252.335C127.621 252.302 128.205 252.257 128.632 252.223C136.893 251.594 146.289 250.132 152.066 248.57C154.584 247.895 154.269 247.906 155.236 248.491C158.574 250.514 163.137 252.156 167.352 252.83C169.543 253.19 170.914 253.291 173.241 253.291C178.602 253.291 183.469 252.167 187.919 249.907C195.663 245.995 200.777 239.464 204.216 229.122C206.093 223.49 207.06 217.633 207.487 209.225C207.644 206.167 207.689 195.836 207.554 190.272L207.464 186.427L208.79 185.618C210.24 184.73 211.847 183.606 213.005 182.684L213.577 182.223C260.192 182.44 334.937 182.639 481.341 182.639H732.672L732.93 182.38C733.312 182.009 733.279 181.29 732.874 180.942L732.559 180.672L483.083 180.66C345.875 180.649 232.955 180.627 232.145 180.616C231.347 180.593 228.684 180.548 226.245 180.503C223.806 180.469 221.479 180.413 221.075 180.391C220.67 180.368 219.344 180.323 218.13 180.278L215.916 180.2L217.141 178.884C222.738 172.926 225.975 166.148 226.807 158.695C226.942 157.425 226.942 153.704 226.796 152.512C225.975 145.599 223.154 139.517 218.22 133.975C215.422 130.839 211.139 127.995 207.194 126.646C206.52 126.421 205.902 126.185 205.846 126.14C205.767 126.084 205.711 124.802 205.688 122.475C205.677 120.508 205.643 118.394 205.632 117.776C205.61 117.158 205.565 107.974 205.52 97.3731L205.441 78.0942L206.655 77.0712C209.656 74.5194 213.623 70.5737 216.68 67.0777C227.043 55.2405 233.719 41.8069 235.562 29.0817C235.911 26.6985 235.967 25.6644 235.955 22.1121C235.955 19.6502 235.899 18.5261 235.753 17.5032C234.82 11.0169 232.348 6.28418 228.605 3.7886C226.964 2.69819 222.615 1.00085 220.12 0.472499C218.838 0.202706 216.309 0.0903036 215.365 0.258924ZM217.534 2.21486C218.962 2.24858 219.411 2.30478 220.513 2.59705C222.03 2.9905 222.603 3.19278 224.301 3.87851C226.975 4.98016 228.088 5.67726 229.369 7.04871C233.809 11.7926 235.225 21.1904 233.101 31.746C232.426 35.0847 231.179 39.1428 229.763 42.6277C226.267 51.1936 220.85 59.5908 213.826 67.3024C211.477 69.888 206.644 74.6318 205.666 75.3175L205.43 75.4861L205.497 57.0615C205.531 46.9331 205.587 38.131 205.621 37.5127C205.643 36.8945 205.722 34.9947 205.79 33.2972C206.385 18.0202 207.936 9.54429 210.903 5.3625C211.589 4.39574 212.69 3.40643 213.601 2.9343C214.286 2.57457 214.59 2.47336 215.624 2.22606C215.747 2.19233 216.613 2.19237 217.534 2.21486ZM203.396 79.8815C203.418 79.8927 203.452 84.884 203.486 90.9769C203.609 115.64 203.654 121.801 203.733 123.667L203.8 125.623L203.306 125.544C201.226 125.196 200.541 125.128 198.653 125.072C193.651 124.903 189.212 125.859 184.604 128.118C177.186 131.738 172.173 137.954 170.678 145.385C169.903 149.185 170.049 152.602 171.173 157.009C173.6 166.553 177.916 172.556 185.053 176.299C188.155 177.929 192.134 179.233 196.821 180.166C198.855 180.571 202.777 181.155 204.362 181.301C204.845 181.346 205.25 181.414 205.272 181.447C205.279 181.457 205.295 181.881 205.306 182.021C204.751 182.01 204.117 182.007 203.551 181.998C203.592 182.058 203.628 182.121 203.658 182.185C204.209 182.187 204.876 182.189 205.316 182.191C205.34 182.548 205.364 182.752 205.385 183.381L205.464 185.247L204.812 185.584C202.957 186.562 199.788 187.81 197.304 188.541C192.909 189.822 188.818 190.373 183.817 190.362C180.715 190.362 178.737 190.182 176.365 189.721C170.576 188.591 165.165 185.827 160.497 181.826C160.884 181.839 162.621 181.855 163.268 181.869C163.295 181.791 163.311 181.744 163.335 181.673C162.344 181.68 161.119 181.68 160.348 181.689C156.164 178.065 152.577 173.456 149.931 168.025C147.402 162.832 146.019 157.998 145.255 151.725C145.019 149.758 144.963 144.474 145.154 142.384C146.188 131.232 150.369 121.407 157.911 112.437C159.372 110.694 163.148 106.883 164.879 105.399C169.925 101.06 173.994 98.3736 182.3 93.8883C186.739 91.4939 191.606 88.5037 195.618 85.7046C197.607 84.3219 201.384 81.5002 202.699 80.4211C203.07 80.1176 203.384 79.8702 203.396 79.8815ZM196.517 127.017C197.731 126.949 200.901 127.151 202.26 127.388L203.744 127.635L203.811 129.737C203.845 130.884 203.901 133.267 203.935 135.032C204.014 138.865 204.182 146.251 204.272 148.915C204.329 150.826 204.396 153.018 204.497 156.278C204.598 159.459 204.666 161.809 204.778 165.046C204.834 166.811 204.913 169.138 204.947 170.217C204.98 171.296 205.036 172.589 205.059 173.084C205.081 173.578 205.138 175.208 205.183 176.715L205.261 179.435L204.935 179.379C204.755 179.357 203.924 179.244 203.092 179.154C199.956 178.783 196.304 178.098 193.483 177.356C188.773 176.119 184.862 174.275 181.962 171.937C180.872 171.06 179.04 169.161 178.231 168.07C175.983 165.057 174.219 161.078 173.039 156.323C172.061 152.377 171.937 149.016 172.656 145.542C174.477 136.662 182.333 129.512 192.471 127.511C193.471 127.309 195.225 127.095 196.517 127.017ZM205.767 128.253L206.082 128.332C206.262 128.377 207.015 128.669 207.756 128.973C211.173 130.378 214.545 132.795 217.051 135.65C221.052 140.203 223.705 145.621 224.604 151.107C224.975 153.366 225.087 156.75 224.84 158.526C224.818 158.684 224.773 159.088 224.728 159.425C224.683 159.763 224.525 160.64 224.379 161.359C223.019 167.89 219.501 174.017 214.32 178.907L213.151 180.02L211.915 179.964C211.241 179.93 209.903 179.84 208.97 179.761L207.251 179.615L207.239 179.053C207.239 178.738 207.217 178.221 207.194 177.918C207.183 177.603 207.127 176.22 207.093 174.826C207.048 173.432 206.992 171.791 206.97 171.173C206.947 170.555 206.891 169.116 206.857 167.969C206.824 166.822 206.767 165.181 206.745 164.315C206.711 163.45 206.666 162.011 206.633 161.112C206.599 160.212 206.554 158.571 206.52 157.458C206.486 156.345 206.441 154.727 206.408 153.861C206.374 152.995 206.329 151.276 206.295 150.039C206.262 148.802 206.205 147.06 206.183 146.161C206.149 145.261 206.104 143.26 206.07 141.72C206.037 140.169 205.992 137.977 205.958 136.83C205.924 135.684 205.868 133.289 205.835 131.502L205.767 128.253ZM207.52 181.605C207.599 181.638 208.273 181.706 209.004 181.762C209.746 181.807 210.409 181.841 210.488 181.83C210.567 181.822 210.208 182.053 210.209 182.087C209.422 182.066 208.299 182.069 207.464 182.05C207.488 181.97 207.476 181.589 207.52 181.605ZM213.758 182.077L215.309 182.156C214.906 182.142 214.112 182.147 213.688 182.134L213.758 182.077ZM207.445 182.199C208.16 182.203 209.342 182.206 210.076 182.21C209.974 182.362 210.069 182.407 209.307 182.92C208.622 183.381 207.914 183.853 207.711 183.965L207.363 184.168V182.853C207.363 182.3 207.419 182.38 207.445 182.199ZM159.601 208.736C161.238 208.564 162.923 208.626 164.609 208.944C170.397 210.023 174.826 214.34 175.927 219.96C176.219 221.422 176.242 221.68 176.242 223.501C176.264 233.54 169.869 240.633 156.764 245.107C154.415 245.905 154.764 245.95 153.044 244.568C151.605 243.41 149.537 241.296 148.56 239.97C146.638 237.396 145.255 234.203 144.704 231.146C144.457 229.752 144.356 226.48 144.525 224.974C144.896 221.613 145.93 218.521 147.526 216.06C150.223 211.878 154.691 209.252 159.601 208.736Z" fill="white"/>
</svg>
