<svg width="27" height="32" viewBox="0 0 27 32" fill="none" xmlns="http://www.w3.org/2000/svg">
<rect width="27" height="32" fill="#E5E5E5"/>
<g id="Do&#197;&#130;&#196;&#133;cz">
<path d="M-4033 -861C-4033 -862.105 -4032.1 -863 -4031 -863H2949C2950.1 -863 2951 -862.105 2951 -861V3558C2951 3559.1 2950.1 3560 2949 3560H-4031C-4032.1 3560 -4033 3559.1 -4033 3558V-861Z" fill="#E5E5E5"/>
<g id="Za&#197;&#155;piewaj w ch&#195;&#179;rze -  M" clip-path="url(#clip0_1518_1232)">
<rect width="360" height="3099" transform="translate(-18 -503)" fill="url(#paint0_linear_1518_1232)"/>
<g id="Info za&#197;&#155;piewaj w ch&#195;&#179;rze - mobile ">
<rect width="360" height="420" transform="translate(-18 -326)" fill="white"/>
<g id="Kiedy/ gdzie">
<g id="Gdzie">
<g id="Group">
<g id="Group 1">
<path id="Vector" d="M13.5 18.9232C15.8818 18.9232 17.8125 16.8339 17.8125 14.2565C17.8125 11.6792 15.8818 9.58984 13.5 9.58984C11.1182 9.58984 9.1875 11.6792 9.1875 14.2565C9.1875 16.8339 11.1182 18.9232 13.5 18.9232Z" stroke="#1A355F" stroke-width="3" stroke-linecap="round" stroke-linejoin="round"/>
<path id="Vector_2" d="M13.5 29.8125C19.8513 26.7014 25 21.1299 25 14.2569C25 7.38406 19.8513 1.8125 13.5 1.8125C7.14872 1.8125 2 7.38406 2 14.2569C2 21.1299 7.14872 26.7014 13.5 29.8125Z" stroke="#1A355F" stroke-width="3" stroke-linecap="round" stroke-linejoin="round"/>
</g>
</g>
</g>
</g>
</g>
</g>
<path d="M-4031 -862H2949V-864H-4031V-862ZM2950 -861V3558H2952V-861H2950ZM2949 3559H-4031V3561H2949V3559ZM-4032 3558V-861H-4034V3558H-4032ZM-4031 3559C-4031.55 3559 -4032 3558.55 -4032 3558H-4034C-4034 3559.66 -4032.66 3561 -4031 3561V3559ZM2950 3558C2950 3558.55 2949.55 3559 2949 3559V3561C2950.66 3561 2952 3559.66 2952 3558H2950ZM2949 -862C2949.55 -862 2950 -861.552 2950 -861H2952C2952 -862.657 2950.66 -864 2949 -864V-862ZM-4031 -864C-4032.66 -864 -4034 -862.657 -4034 -861H-4032C-4032 -861.552 -4031.55 -862 -4031 -862V-864Z" fill="black" fill-opacity="0.4"/>
</g>
<defs>
<linearGradient id="paint0_linear_1518_1232" x1="133.25" y1="2309.69" x2="1166.12" y2="1491.82" gradientUnits="userSpaceOnUse">
<stop stop-color="#E4EBFF"/>
<stop offset="1" stop-color="white"/>
</linearGradient>
<clipPath id="clip0_1518_1232">
<rect width="360" height="3099" fill="white" transform="translate(-18 -503)"/>
</clipPath>
</defs>
</svg>
