<svg width="40" height="40" viewBox="0 0 40 40" fill="none" xmlns="http://www.w3.org/2000/svg">
<g clip-path="url(#clip0_2212_305)">
<path d="M8.32945 29.4871C8.14998 29.7449 7.96181 29.9994 7.80192 30.2703C7.68009 30.478 7.59525 30.7053 7.4941 30.9229C7.35487 31.2242 7.23631 31.5353 7.31136 31.8714C7.32486 31.9309 7.34996 31.9872 7.38524 32.0371C7.42051 32.0869 7.46527 32.1293 7.51694 32.1618C7.57241 32.1901 7.71708 32.09 7.79321 32.0182C7.86935 31.9464 7.88349 31.8322 7.95093 31.7594C7.98552 31.7209 8.01132 31.6754 8.02654 31.626C8.04175 31.5766 8.04602 31.5245 8.03903 31.4733C8.03445 31.4129 8.03811 31.3521 8.04991 31.2927C8.13257 30.9381 8.21814 30.585 8.30661 30.2333C8.35338 30.0484 8.41537 29.8678 8.46215 29.6894C8.4791 29.6007 8.49 29.5109 8.49478 29.4207L8.44148 29.4055C8.40023 29.4269 8.36246 29.4544 8.32945 29.4871Z" fill="white"/>
<path d="M20.0626 25.5604C19.8923 25.7027 19.756 25.8812 19.6636 26.0829C19.5712 26.2847 19.525 26.5045 19.5285 26.7264C19.5285 26.8036 19.6297 26.8863 19.6949 26.9559C19.7047 26.9668 19.7874 26.9287 19.8178 26.8961C20.1746 26.51 20.3617 26.0324 20.5673 25.5604C20.3617 25.4592 20.1942 25.4505 20.0626 25.5604Z" fill="white"/>
<path d="M20.8175 22.9729C20.724 22.6107 20.4368 22.417 20.1551 22.2169C20.1092 22.1806 20.053 22.1595 19.9946 22.1566C19.9361 22.1537 19.8781 22.1691 19.8288 22.2006C19.6661 22.277 19.5282 22.3975 19.4307 22.5485C19.3332 22.6994 19.2801 22.8748 19.2773 23.0544C19.3179 23.2436 19.368 23.4305 19.4274 23.6146C19.5634 23.9823 19.8321 24.2673 20.0594 24.5794C20.1191 24.6493 20.1934 24.7054 20.2769 24.7437C20.3231 24.7706 20.3742 24.7881 20.4272 24.7952C20.4802 24.8022 20.5341 24.7986 20.5857 24.7847C20.6373 24.7707 20.6856 24.7466 20.7279 24.7138C20.7701 24.681 20.8054 24.6401 20.8317 24.5936C20.8808 24.5271 20.9136 24.4499 20.9274 24.3684C20.9513 24.0979 20.9578 23.8261 20.947 23.5548C20.9219 23.3572 20.8786 23.1624 20.8175 22.9729Z" fill="white"/>
<path d="M15.6553 23.3208C16.0099 22.7596 16.3591 22.195 16.7093 21.6305C16.7441 21.574 16.7767 21.5152 16.8289 21.426C16.6756 21.5239 16.5538 21.5968 16.4385 21.6762C16.3491 21.7523 16.2554 21.8231 16.1578 21.8883C15.8087 22.0776 15.6336 22.3843 15.5389 22.7585C15.4976 22.9216 15.4302 23.0794 15.403 23.2436C15.391 23.3143 15.4487 23.397 15.4759 23.4742C15.5431 23.4324 15.6036 23.3807 15.6553 23.3208Z" fill="white"/>
<path d="M20.0222 1.18353e-05C16.0661 -0.00429117 12.1976 1.16484 8.90596 3.35951C5.61437 5.55419 3.04761 8.6758 1.53033 12.3295C0.0130627 15.9832 -0.386542 20.0048 0.382066 23.8857C1.15067 27.7665 3.05296 31.3322 5.84831 34.1317C8.64365 36.9313 12.2065 38.8389 16.0861 39.6132C19.9657 40.3875 23.9878 39.9938 27.6436 38.4819C31.2994 36.9699 34.4247 34.4077 36.6242 31.1192C38.8236 27.8308 39.9984 23.9639 39.9999 20.0076C39.9901 9.00746 31.1591 0.0130645 20.0222 1.18353e-05ZM27.2543 9.25329H27.6633V12.9516C27.8068 12.7677 27.9297 12.5839 28.0788 12.4251C28.4208 12.0352 28.8983 11.7898 29.4144 11.7387C29.6882 11.716 29.9637 11.7505 30.2234 11.8401C30.4832 11.9296 30.7214 12.0721 30.9231 12.2587C31.4985 12.7558 31.7845 13.3986 31.8487 14.1481C31.9309 14.8866 31.7217 15.628 31.2657 16.2147C30.8643 16.7314 30.3412 17.0545 29.6766 17.0969C29.1012 17.1339 28.6117 16.9109 28.2006 16.5258C28.013 16.3331 27.8358 16.1305 27.6698 15.9189V16.9914H27.2543V9.25329ZM21.744 12.9874C22.166 12.1836 22.8317 11.7289 23.7541 11.7366C24.6764 11.7442 25.3356 12.2195 25.7587 13.032C25.9984 13.5268 26.1077 14.0745 26.0763 14.6234H21.8354C21.806 15.1966 22.1802 16.1179 22.8894 16.4888C23.3154 16.7057 23.8066 16.7576 24.2686 16.6346C24.7548 16.5258 25.0952 16.1941 25.4063 15.8199L25.7174 16.0896C25.3911 16.5128 25.0006 16.851 24.4817 17.0022C23.12 17.3982 21.8648 16.6553 21.508 15.2412C21.2973 14.4873 21.3817 13.6814 21.744 12.9874ZM19.7122 9.64705H20.1212V10.6749H19.7122V9.64705ZM19.7122 11.8388H20.1168V16.9968H19.7122V11.8388ZM11.933 9.6416C12.0548 9.6416 12.1788 9.63617 12.3028 9.6416C12.3365 9.6416 12.3735 9.68511 12.3985 9.71666C13.7154 11.4345 15.0322 13.1528 16.349 14.8714L17.3834 16.2213C17.4009 16.2452 17.4215 16.2659 17.4607 16.3104V9.64813H17.8718V16.9935C17.8649 16.9966 17.8576 16.9988 17.8501 17.0001C17.4813 17.0196 17.4813 17.0196 17.2529 16.7227C15.6431 14.6248 14.0341 12.527 12.4257 10.4291C12.4072 10.4052 12.3877 10.3823 12.3496 10.3367V16.9946H11.9308L11.933 9.6416ZM5.96264 17.0055C5.65483 17.0055 5.65374 17.0055 5.56672 16.714C5.09031 15.1259 4.61463 13.5378 4.13967 11.9498C4.12988 11.916 4.12335 11.8823 4.11138 11.841H4.53124C4.96631 13.3192 5.41227 14.8029 5.86475 16.3235C5.89194 16.2441 5.90935 16.1962 5.92457 16.1473C6.34152 14.7492 6.75702 13.3507 7.17107 11.9519C7.19718 11.8606 7.2309 11.8214 7.3277 11.8301C7.42451 11.8388 7.52784 11.8301 7.63769 11.8301C8.08002 13.3174 8.52163 14.804 8.96251 16.2898H8.99079L9.29099 15.2869C9.62165 14.1745 9.95122 13.0621 10.2797 11.9498C10.3069 11.8562 10.3461 11.8236 10.4396 11.8312C10.5331 11.8388 10.6289 11.8312 10.7409 11.8312C10.6506 12.1347 10.5658 12.4197 10.4798 12.7014C10.0665 14.0792 9.65464 15.4569 9.24422 16.8347C9.20615 16.9653 9.15829 17.0153 9.01689 17.0077C8.76346 16.9935 8.76346 17.0077 8.69058 16.7608C8.28161 15.3786 7.87155 13.9969 7.4604 12.6154C7.4517 12.5861 7.43865 12.56 7.41798 12.5067C7.33314 12.7895 7.25591 13.0505 7.1776 13.3094C6.82446 14.5008 6.47096 15.6919 6.1171 16.8826C6.08664 16.9729 6.0551 17.0077 5.96264 17.0055ZM35.0302 24.5358C34.841 24.798 34.643 25.0547 34.4461 25.3125C34.4276 25.3364 34.4026 25.3549 34.3852 25.3799C34.1524 25.7182 33.9251 26.0619 33.6847 26.3947C33.514 26.6286 33.3291 26.8375 33.155 27.0637C33.0615 27.1833 32.9745 27.3084 32.8842 27.4303C32.7297 27.6391 32.5775 27.849 32.4176 28.0535C32.3752 28.0974 32.324 28.1319 32.2675 28.1547C31.8977 28.3352 31.5213 28.5049 31.158 28.6985C30.9462 28.8008 30.7794 28.9773 30.6892 29.1946C30.5442 29.5138 30.3826 29.8253 30.2052 30.1278C30.1247 30.2768 30.0149 30.4117 29.9485 30.5629C29.831 30.8359 29.6222 31.0317 29.4253 31.2373C29.1262 31.5429 28.8216 31.8432 28.4257 32.0194C28.2554 32.1041 28.0711 32.1575 27.8819 32.1771C27.4609 32.2021 27.0346 32.2859 26.6158 32.1466C25.998 31.94 25.4987 31.5908 25.2279 30.9762C25.1854 30.8918 25.1662 30.7976 25.1724 30.7032C25.1827 30.6247 25.219 30.5518 25.2757 30.4964C25.3323 30.441 25.4058 30.4062 25.4846 30.3976C25.8838 30.3204 26.296 30.279 26.6811 30.1528C27.3718 29.9255 28.0461 29.6525 28.7227 29.386C28.9148 29.3049 29.0699 29.1553 29.1577 28.9661C29.5203 28.2548 29.88 27.5427 30.2367 26.8298C30.2868 26.7319 30.3281 26.6297 30.3727 26.5296L30.3401 26.4959C30.2726 26.5264 30.2041 26.5546 30.1378 26.5873C29.8256 26.7363 29.5156 26.8918 29.2002 27.0332C29.1294 27.0581 29.052 27.0561 28.9826 27.0278C28.6563 26.8864 28.3648 26.7015 28.1756 26.3752C28.0026 26.0793 27.8079 25.7965 27.6197 25.505L27.5393 25.5735C27.1466 25.8998 26.7594 26.2262 26.358 26.5383C26.2213 26.6299 26.0755 26.7072 25.9229 26.7689C25.6206 26.9147 25.5825 27.018 25.6021 27.3519C25.5991 27.5678 25.5747 27.7827 25.5292 27.9937C25.4914 28.2002 25.4102 28.3963 25.291 28.5691C25.0307 28.9541 24.7362 29.3149 24.411 29.647C24.2653 29.808 24.0467 29.9038 23.8618 30.0299L23.828 29.9886L24.0314 29.7014L24.0195 29.6829L23.8531 29.7623L23.7922 29.6971C23.7164 29.7517 23.6368 29.8007 23.5539 29.8439C23.4876 29.8733 23.3864 29.9647 23.3571 29.7852C23.2842 29.8211 23.2168 29.857 23.1461 29.8863C23.0754 29.9157 23.0036 29.919 22.9688 29.8363C22.8796 29.6307 22.786 29.4273 22.7142 29.2163C22.6425 29.0053 22.7306 28.8215 22.8067 28.6387C22.9639 28.3035 23.1761 27.9969 23.4343 27.7316C23.5953 27.5499 23.7704 27.3791 23.9477 27.2116C24.2207 26.9527 24.3012 26.6678 24.1391 26.3077C23.9771 25.9477 23.8346 25.5757 23.6779 25.1928C23.3855 25.3589 23.0603 25.4591 22.7251 25.4865C22.2792 25.5213 21.8328 25.546 21.3862 25.5605C21.3398 25.5548 21.2932 25.5675 21.256 25.5957C21.2188 25.6239 21.1941 25.6655 21.1871 25.7117C21.061 26.191 20.839 26.6399 20.5345 27.0311L20.5258 27.0419C20.2354 27.316 19.9743 27.6489 19.5469 27.7142C18.9595 27.8044 18.6452 27.7239 18.3852 27.2573C18.2492 26.9942 18.1825 26.7006 18.1916 26.4045V26.0543L18.1699 26.0467C18.0872 26.1826 18.0013 26.3175 17.9229 26.4557C17.7526 26.7593 17.5373 27.0354 17.2845 27.2747C16.9658 27.5771 16.6525 27.886 16.336 28.1906C16.1327 28.3729 15.8658 28.4679 15.5931 28.4549C15.272 28.4716 14.95 28.4538 14.6327 28.4016C14.3357 28.3363 14.0377 28.2113 13.8822 27.8969C13.8199 27.7876 13.7494 27.6832 13.6711 27.5847C13.5635 27.4082 13.4822 27.2169 13.4297 27.0169C13.2839 26.559 13.3949 26.1152 13.4362 25.666C13.4358 25.6563 13.4339 25.6468 13.4308 25.6377C13.4199 25.6453 13.4036 25.6497 13.3992 25.6594C13.21 26.1283 12.8195 26.4067 12.4279 26.6841C12.3191 26.7646 12.1995 26.844 12.0798 26.9136C11.499 27.2475 11.0139 27.7065 10.4994 28.1264C10.2819 28.3081 10.209 28.5615 10.1546 28.8215C10.0459 29.3436 9.93708 29.8646 9.82831 30.3856C9.76631 30.6782 9.69561 30.9675 9.62818 31.2558C9.62128 31.2984 9.60653 31.3393 9.58467 31.3765C9.36713 31.7028 9.14959 32.0411 8.80479 32.2565C8.76987 32.2743 8.73794 32.2974 8.71016 32.325C8.5742 32.4762 8.39799 32.5284 8.20765 32.5904C7.98579 32.6722 7.75619 32.7313 7.5224 32.7666C7.27005 32.7949 7.00792 32.7318 6.75014 32.7036C6.73391 32.6986 6.71906 32.6899 6.70679 32.6782C6.69451 32.6665 6.68514 32.6521 6.67943 32.6361C6.60656 32.2358 6.48147 31.8268 6.63919 31.4309C6.78253 31.1009 6.94824 30.7811 7.13518 30.4737C7.51138 29.8062 7.97241 29.1901 8.50676 28.6409C8.66025 28.482 8.77231 28.2877 8.83307 28.0753C8.96251 27.6543 9.11696 27.2399 9.26054 26.8222C9.26684 26.8082 9.2701 26.793 9.2701 26.7776C9.2701 26.7623 9.26684 26.7471 9.26054 26.733C9.105 26.9071 8.95272 27.0844 8.79283 27.254C8.69218 27.3663 8.58309 27.4706 8.46652 27.5662C8.38068 27.6343 8.27925 27.6798 8.17138 27.6988C8.06351 27.7178 7.95261 27.7096 7.84871 27.675C7.29942 27.501 6.97094 27.1224 7.04925 26.5329C7.16212 25.7392 7.39962 24.9683 7.75299 24.2487C8.0259 23.6801 8.37021 23.1486 8.7776 22.6671C8.81735 22.6208 8.86223 22.5792 8.91139 22.5431C9.1137 22.3937 9.3171 22.2465 9.52158 22.1015C9.56511 22.0648 9.61818 22.0412 9.67461 22.0335C9.73104 22.0258 9.7885 22.0343 9.84028 22.058C9.87961 22.0765 9.92385 22.0818 9.96645 22.0732C10.0538 22.0541 10.1445 22.0562 10.2308 22.0795C10.3171 22.1028 10.3966 22.1465 10.4624 22.207C10.6713 22.3702 10.8769 22.5333 11.0868 22.6997C11.2129 22.7976 11.3522 22.8803 11.4718 22.9858C11.4967 23.0024 11.5174 23.0244 11.5326 23.0502C11.5478 23.0759 11.5569 23.1048 11.5595 23.1345C11.562 23.1643 11.5577 23.1943 11.5471 23.2222C11.5364 23.2501 11.5196 23.2753 11.4979 23.2958C11.4626 23.3431 11.4119 23.3767 11.3545 23.3906C11.2971 23.4045 11.2366 23.3979 11.1836 23.372C11.1123 23.3281 11.0293 23.3073 10.9458 23.3124C10.8623 23.3174 10.7824 23.3481 10.717 23.4002C10.5279 23.5446 10.3511 23.7043 10.1883 23.8778C9.65321 24.4657 9.18785 25.1136 8.80153 25.8085C8.61553 26.1348 8.4502 26.4611 8.28596 26.7983C8.24676 26.8855 8.22673 26.9801 8.22723 27.0757C8.22723 27.1953 8.29249 27.2279 8.39908 27.1768C8.4187 27.1682 8.43701 27.1568 8.45346 27.1431C8.72539 26.869 9.01472 26.6112 9.2638 26.3186C9.62383 25.8955 9.95013 25.443 10.3015 25.0133C10.519 24.7468 10.7485 24.4934 10.9791 24.241C11.0289 24.2015 11.0863 24.1727 11.1477 24.1562C11.1825 24.1421 11.2249 24.1432 11.2565 24.1268C11.4131 24.0453 11.5469 24.1051 11.5534 24.2835C11.5593 24.4029 11.535 24.5218 11.4827 24.6294C11.381 24.8113 11.2665 24.9858 11.1401 25.1515C10.7909 25.6246 10.6473 26.1783 10.519 26.7374C10.4893 26.8855 10.4801 27.0371 10.4918 27.1877C10.4915 27.2177 10.4987 27.2473 10.5129 27.2738C10.5271 27.3003 10.5477 27.3227 10.5729 27.3391C10.598 27.3555 10.6269 27.3653 10.6569 27.3675C10.6868 27.3697 10.7168 27.3644 10.7442 27.3519C10.8761 27.31 11.0022 27.2515 11.1194 27.1779C11.5414 26.8951 11.9526 26.596 12.3746 26.3153C12.7499 26.0754 13.0583 25.7442 13.2709 25.3527C13.335 25.2309 13.4318 25.1254 13.4971 25.0035C13.5446 24.9077 13.5793 24.806 13.6004 24.7012C13.6842 24.3215 13.7614 23.9398 13.8463 23.5329L13.3024 24.0115C13.25 23.9096 13.2028 23.805 13.161 23.6983C13.1512 23.6678 13.1828 23.6123 13.211 23.5819C13.2556 23.534 13.3198 23.5003 13.3655 23.4557C13.5461 23.2958 13.7136 23.1174 13.9093 22.976C14.2596 22.7226 14.4293 22.343 14.6251 21.9851C15.1134 21.0899 15.5735 20.1751 16.2566 19.405C16.5635 19.0739 16.8905 18.7619 17.2355 18.4707C17.4193 18.3075 17.6369 18.2042 17.9045 18.2771C18.172 18.3499 18.3493 18.5327 18.3395 18.8024C18.3297 19.0722 18.2819 19.3267 18.2503 19.5889C18.2503 19.6095 18.2503 19.6291 18.2416 19.6487C18.4983 19.5573 18.7474 19.4648 19.003 19.3811C19.0585 19.3646 19.1179 19.3672 19.1716 19.3887C19.189 19.3963 19.1901 19.4855 19.1716 19.5279C19.0615 19.7706 18.885 19.9773 18.6626 20.124C18.3504 20.3513 18.0328 20.5711 17.7174 20.7962C17.6849 20.8174 17.658 20.8462 17.6391 20.88C17.1822 21.7502 16.6057 22.5377 16.0597 23.3469C15.6778 23.9233 15.4309 24.5784 15.3375 25.2635C15.277 25.72 15.274 26.1823 15.3288 26.6395C15.3454 26.8778 15.4063 27.1109 15.5083 27.3269C15.5583 27.4066 15.6319 27.4688 15.7187 27.5051C15.8056 27.5413 15.9015 27.5497 15.9934 27.5292C16.106 27.4834 16.2151 27.4292 16.3197 27.3672C16.7874 27.0963 17.2366 26.8005 17.5923 26.3882C17.6674 26.3094 17.7365 26.2251 17.7989 26.1359C18.0861 25.6725 18.3635 25.2015 18.6539 24.7392C18.7744 24.554 18.9048 24.3754 19.0444 24.2041C19.0685 24.1803 19.0833 24.1487 19.0861 24.115C19.0889 24.0812 19.0795 24.0476 19.0596 24.0202C18.8895 23.6917 18.7944 23.3295 18.7811 22.9597C18.7741 22.7411 18.8366 22.526 18.9595 22.3451C19.0047 22.2878 19.0629 22.2419 19.1292 22.2114C19.3222 22.09 19.5228 21.981 19.7296 21.885C19.8102 21.8556 19.8973 21.8484 19.9816 21.8641C20.066 21.8798 20.1446 21.9178 20.2093 21.9742C20.4355 22.1504 20.6618 22.3267 20.8771 22.5181C20.9631 22.5979 21.0329 22.6936 21.0827 22.7998C21.2667 23.1432 21.3774 23.521 21.4079 23.9093C21.4166 24.1432 21.4427 24.3759 21.4558 24.6098C21.4558 24.6745 21.4492 24.739 21.4362 24.8023C21.4155 24.9296 21.471 25.0199 21.5961 25.0144C22.1762 25.0014 22.7581 24.9843 23.3418 24.9633C23.3975 24.9537 23.4516 24.9369 23.5028 24.9133C23.4158 24.5554 23.3342 24.2106 23.2461 23.868C23.1882 23.623 23.2138 23.3657 23.319 23.137C23.3549 23.05 23.3386 22.9423 23.3712 22.852C23.5163 22.4571 23.7147 22.0838 23.9607 21.7425C24.0227 21.6608 24.0923 21.585 24.1685 21.5163C24.1824 21.5091 24.1979 21.5053 24.2136 21.5053C24.2293 21.5053 24.2448 21.5091 24.2588 21.5163C24.4296 21.5928 24.5749 21.7166 24.6775 21.8731C24.8332 22.1099 24.926 22.3824 24.9473 22.6649C24.9538 22.9608 24.9114 23.2577 24.6667 23.484C24.6 23.5676 24.5478 23.6617 24.5122 23.7625C24.4828 23.8201 24.4676 23.8843 24.435 23.9398C24.3395 24.1075 24.3038 24.3027 24.3338 24.4934C24.3503 24.5819 24.3851 24.6661 24.4361 24.7403C24.5546 24.935 24.6906 25.1199 24.8048 25.3179C24.9375 25.5496 25.0539 25.7911 25.179 26.0271C25.2573 26.175 25.353 26.2174 25.527 26.1478C25.8588 26.014 26.2036 25.9053 26.4885 25.6725C26.7735 25.4397 27.09 25.2015 27.3892 24.9622C27.4573 24.9147 27.5149 24.8535 27.5581 24.7825C27.6014 24.7115 27.6294 24.6323 27.6404 24.55C27.687 24.2377 27.7598 23.9299 27.858 23.6297C28.0233 23.0979 28.1843 22.5638 28.392 22.0449C28.5008 21.7708 28.6911 21.5294 28.8467 21.2737C28.88 21.2285 28.9163 21.1856 28.9554 21.1454L29.148 21.3096C29.2186 21.3802 29.2967 21.4429 29.3807 21.4967C29.6548 21.6327 29.8332 21.8687 30.0257 22.0906C30.1998 22.2908 30.314 22.8314 30.1225 23.1479C29.9311 23.4644 29.7821 23.8201 29.5928 24.1464C29.4036 24.4727 29.1817 24.7806 28.9848 25.1025C28.8564 25.3082 28.7406 25.5214 28.6378 25.741C28.5965 25.8335 28.5704 25.989 28.6193 26.0521C28.6955 26.1511 28.8369 26.076 28.9261 26.0195C29.2752 25.8173 29.6115 25.5939 29.9333 25.3505C30.4488 24.9307 30.9416 24.4804 31.4267 24.0289C31.5637 23.9006 31.6442 23.7026 31.7465 23.5449C31.8161 23.4361 31.8781 23.3274 31.9499 23.2186C32.0586 23.0562 32.1707 22.8963 32.286 22.7389C32.3291 22.6796 32.3788 22.6252 32.4339 22.5768C32.5024 22.5181 32.5644 22.5583 32.6166 22.6106C32.715 22.7219 32.7762 22.8612 32.7916 23.009C32.807 23.1569 32.7759 23.3058 32.7025 23.435C32.6136 23.611 32.5366 23.7927 32.472 23.9789C32.4556 24.0192 32.4459 24.0616 32.4274 24.1007C32.0673 24.811 31.852 25.5768 31.5866 26.323C31.4778 26.6166 31.3821 26.9114 31.2929 27.2105C31.2812 27.2476 31.2777 27.2868 31.2828 27.3253C31.2879 27.3638 31.3013 27.4008 31.3223 27.4335C31.3563 27.453 31.3947 27.4639 31.4339 27.4652C31.4731 27.4665 31.5121 27.4583 31.5474 27.4411C31.8211 27.2914 32.0836 27.122 32.3327 26.9343C33.1401 26.3004 33.8702 25.5739 34.5081 24.7697C34.6571 24.5782 34.7898 24.3738 34.9247 24.1834C34.9672 24.2427 35.0037 24.3061 35.0335 24.3727C35.0431 24.399 35.0473 24.4271 35.0458 24.4551C35.0443 24.4832 35.0372 24.5106 35.0248 24.5358H35.0302ZM36.4497 16.8304C36.1045 17.0082 35.7228 17.1037 35.3345 17.1094C34.9462 17.115 34.5619 17.0307 34.2117 16.8629C33.8614 16.6952 33.5548 16.4486 33.3158 16.1425C33.0768 15.8365 32.912 15.4792 32.8342 15.0987C32.6438 14.1763 32.7972 13.3257 33.4139 12.597C33.6132 12.3578 33.8581 12.1605 34.1342 12.0168C34.4104 11.873 34.7124 11.7855 35.0226 11.7594C36.3975 11.6115 37.5134 12.5121 37.7843 13.8261C37.8256 14.0251 37.8332 14.2307 37.8517 14.3928C37.8038 15.4762 37.4079 16.33 36.4442 16.8304H36.4497Z" fill="white"/>
<path d="M16.8282 20.7092C16.8804 20.5874 16.9793 20.5428 17.0631 20.471C17.2023 20.3535 17.3894 20.2709 17.4851 20.1284C17.7244 19.7847 17.8114 19.3811 17.8539 18.9319C17.5895 19.0057 17.3534 19.1573 17.1762 19.367C17.0241 19.534 16.8865 19.7138 16.7651 19.9043C16.578 20.2437 16.4246 20.6026 16.2582 20.954C16.231 21.0127 16.2125 21.0769 16.1875 21.1465C16.3202 21.0725 16.4431 21.0138 16.5562 20.9387C16.6694 20.8637 16.7857 20.8082 16.8282 20.7092Z" fill="white"/>
<path d="M30.8344 16.0907C31.7046 15.1541 31.6513 13.5193 30.7257 12.6404C30.0731 12.0215 29.1605 11.9714 28.4633 12.5316C28.2109 12.7309 28.0043 12.982 27.8574 13.268C27.7105 13.554 27.6266 13.8681 27.6116 14.1893C27.604 14.9507 27.7552 15.4533 28.0739 15.897C28.7798 16.8782 30.0252 16.9641 30.8344 16.0907Z" fill="white"/>
<path d="M24.108 27.7936C24.0091 27.8711 23.916 27.9558 23.8296 28.0471C23.6827 28.1917 23.5718 28.3734 23.3662 28.455C23.3053 28.4789 23.2651 28.5583 23.2215 28.6159C23.178 28.6736 23.1682 28.7312 23.1237 28.7671C23.0427 28.8334 22.9769 28.9162 22.9305 29.01C22.8842 29.1038 22.8584 29.2064 22.855 29.311C22.8517 29.3767 22.8651 29.4423 22.8941 29.5013C22.9328 29.5588 22.9761 29.613 23.0236 29.6634C23.0965 29.7613 23.1704 29.7646 23.2629 29.6841C23.5816 29.4013 23.8937 29.1087 24.0591 28.7051C24.1678 28.4473 24.2407 28.1787 24.331 27.9144L24.2984 27.9035C24.2962 27.7599 24.2201 27.7164 24.108 27.7936Z" fill="white"/>
<path d="M35.554 12.1618C35.1747 12.1029 34.7865 12.1548 34.436 12.311C34.0854 12.4673 33.7874 12.7214 33.5776 13.0428C33.1654 13.6313 33.0947 14.2937 33.2285 14.9844C33.2944 15.3256 33.4435 15.6453 33.6625 15.9151C33.8816 16.1849 34.1639 16.3964 34.4843 16.5309C34.8047 16.6654 35.1534 16.7187 35.4994 16.6861C35.8454 16.6535 36.178 16.536 36.4677 16.3441C37.1475 15.8872 37.4205 15.2139 37.4368 14.2828C37.4142 14.0681 37.3738 13.8556 37.3161 13.6476C37.0376 12.7948 36.4481 12.2705 35.554 12.1618Z" fill="white"/>
<path d="M28.4781 30.29C28.4089 30.287 28.3397 30.2939 28.2725 30.3107C28.0071 30.3879 27.7471 30.4869 27.4785 30.5489C27.0837 30.6413 26.6812 30.7055 26.282 30.7903C26.1997 30.8062 26.1251 30.8491 26.0699 30.9122C25.9372 31.0862 26.0068 31.3005 26.2331 31.4473C26.4439 31.5789 26.6872 31.649 26.9357 31.6496C27.1272 31.6517 27.3169 31.613 27.4922 31.5361C27.6675 31.4592 27.8245 31.3459 27.9527 31.2037C28.0615 31.0884 28.1703 30.9753 28.266 30.8556C28.3772 30.7287 28.4804 30.5951 28.5749 30.4553C28.6456 30.3509 28.6032 30.2911 28.4781 30.29Z" fill="white"/>
<path d="M25.6503 14.0849C25.5909 13.8018 25.5113 13.5234 25.4121 13.2517C25.2451 12.8453 24.9348 12.5143 24.5402 12.3213C24.1455 12.1282 23.6937 12.0866 23.2704 12.2042C22.6124 12.3772 22.2143 12.8395 21.9761 13.4551C21.8818 13.6939 21.8285 13.9469 21.8184 14.2035H25.6503C25.6547 14.1641 25.6547 14.1243 25.6503 14.0849Z" fill="white"/>
</g>
<defs>
<clipPath id="clip0_2212_305">
<rect width="40" height="40" fill="white"/>
</clipPath>
</defs>
</svg>