<svg width="24" height="24" viewBox="0 0 24 24" fill="none" xmlns="http://www.w3.org/2000/svg">
<path d="M17.5998 16.8H19.9998V14.4M17.5998 7.2H19.9998V9.6M6.3998 7.2H3.9998V9.6M3.9998 14.4V16.8H6.3998M11.9998 15.2C10.2325 15.2 8.7998 13.7673 8.7998 12C8.7998 10.2327 10.2325 8.8 11.9998 8.8C13.7671 8.8 15.1998 10.2327 15.1998 12C15.1998 13.7673 13.7671 15.2 11.9998 15.2ZM2.3998 4H21.5998C22.4835 4 23.1998 4.71634 23.1998 5.6V18.4C23.1998 19.2837 22.4835 20 21.5998 20H2.39981C1.51615 20 0.799805 19.2837 0.799805 18.4V5.6C0.799805 4.71634 1.51615 4 2.3998 4Z" stroke="#0A1A2E"/>
</svg>
