<svg width="25" height="24" viewBox="0 0 25 24" fill="none" xmlns="http://www.w3.org/2000/svg">
<path d="M9.75 18V5L21.75 3V16" stroke="#0A1A2E" stroke-linecap="round" stroke-linejoin="round"/>
<path d="M6.75 21C8.40685 21 9.75 19.6569 9.75 18C9.75 16.3431 8.40685 15 6.75 15C5.09315 15 3.75 16.3431 3.75 18C3.75 19.6569 5.09315 21 6.75 21Z" stroke="#0A1A2E" stroke-linecap="round" stroke-linejoin="round"/>
<path d="M18.75 19C20.4069 19 21.75 17.6569 21.75 16C21.75 14.3431 20.4069 13 18.75 13C17.0931 13 15.75 14.3431 15.75 16C15.75 17.6569 17.0931 19 18.75 19Z" stroke="#0A1A2E" stroke-linecap="round" stroke-linejoin="round"/>
</svg>
