<svg width="1440" height="266" viewBox="0 0 1440 266" fill="none" xmlns="http://www.w3.org/2000/svg">
<path d="M1055.5 151.004L1054.75 149.703L1055.5 151.004ZM1045 115.004L1044.57 113.565L1045 115.004ZM1087.5 10.5036L1086.14 11.1298L1087.5 10.5036ZM1103.5 40.0036L1104.37 38.783L1103.5 40.0036ZM1129 80.5036L1130.1 81.521L1129 80.5036ZM1145 71.0036L1146.3 70.2501L1145 71.0036ZM1027.5 144.004L1028.75 143.17L1027.5 144.004ZM1077 130.004L1075.55 129.615L1077 130.004ZM925.5 166.5L926.881 167.085L927.817 164.876L925.421 165.002L925.5 166.5ZM978.5 165.619L977.231 164.82L977.139 164.966L977.082 165.129L978.5 165.619ZM963 151.004L963.148 149.511L963 151.004ZM930.5 186L929.479 187.099L929.672 187.279L929.915 187.381L930.5 186ZM983.5 252.5L982.001 252.564L985 252.5H983.5ZM1027.98 193.361C1027.35 192.822 1026.4 192.895 1025.86 193.524C1025.32 194.153 1025.39 195.1 1026.02 195.639L1027.98 193.361ZM1085 112.936C1084.5 101.785 1083.42 87.4527 1082.36 72.8478C1081.3 58.2269 1080.25 43.3266 1079.81 30.99C1079.58 24.8212 1079.51 19.3156 1079.66 14.8191C1079.8 10.2796 1080.18 6.9079 1080.78 4.92474C1081.1 3.88492 1081.39 3.52998 1081.48 3.46126C1081.49 3.4564 1081.47 3.4699 1081.44 3.48274C1081.4 3.49618 1081.35 3.50118 1081.32 3.49977C1081.26 3.49714 1081.3 3.47743 1081.49 3.59818C1081.88 3.86221 1082.51 4.51487 1083.34 5.8131C1084.15 7.07668 1085.08 8.82637 1086.14 11.1298L1088.86 9.87732C1087.77 7.50687 1086.78 5.62002 1085.86 4.19473C1084.97 2.80411 1084.08 1.71558 1083.14 1.09641C1082.66 0.775574 1082.08 0.528767 1081.44 0.502322C1080.77 0.474663 1080.17 0.694428 1079.68 1.06806C1078.78 1.74245 1078.26 2.89894 1077.91 4.04917C1077.18 6.4461 1076.81 10.169 1076.66 14.7211C1076.51 19.3163 1076.58 24.8993 1076.81 31.0987C1077.26 43.4985 1078.31 58.4528 1079.37 73.065C1080.43 87.693 1081.5 101.972 1082 113.071L1085 112.936ZM1086.14 11.1298C1090.38 20.37 1091.64 25.5794 1093.35 29.9284C1094.2 32.0751 1095.14 33.9389 1096.59 35.7647C1098.03 37.5817 1099.93 39.2994 1102.63 41.2242L1104.37 38.783C1101.82 36.9578 1100.15 35.4255 1098.94 33.8987C1097.73 32.3808 1096.92 30.807 1096.15 28.8288C1094.61 24.9277 1093.12 19.1371 1088.86 9.87732L1086.14 11.1298ZM1102.63 41.2242C1104.18 42.3314 1105.9 43.0347 1107.61 43.6565C1109.37 44.295 1111.08 44.8391 1112.88 45.656C1116.38 47.237 1120.13 49.8077 1123.71 55.7754L1126.29 54.2319C1122.37 47.6996 1118.12 44.7346 1114.12 42.9227C1112.17 42.0431 1110.26 41.4265 1108.64 40.8373C1106.97 40.2314 1105.57 39.6401 1104.37 38.783L1102.63 41.2242ZM1123.71 55.7754C1127.43 61.9668 1129.49 66.8686 1130.1 70.7584C1130.69 74.5715 1129.89 77.3329 1127.9 79.4862L1130.1 81.521C1132.83 78.5702 1133.77 74.8316 1133.06 70.2958C1132.37 65.8367 1130.07 60.5405 1126.29 54.2319L1123.71 55.7754ZM1127.9 79.4862C1126.55 80.949 1125.26 81.668 1124.25 81.9249C1123.23 82.1838 1122.58 81.9677 1122.25 81.7073C1121.96 81.4746 1121.69 81.0211 1121.83 80.1847C1121.98 79.3106 1122.58 78.0495 1124.06 76.5642L1121.94 74.4429C1120.17 76.2076 1119.15 78.0091 1118.87 79.6974C1118.59 81.4236 1119.1 83.0326 1120.38 84.0499C1121.61 85.0395 1123.3 85.2608 1124.99 84.8323C1126.68 84.4016 1128.45 83.3081 1130.1 81.521L1127.9 79.4862ZM1124.06 76.5642C1125.87 74.752 1127.72 72.933 1129.57 71.3743C1131.44 69.8089 1133.24 68.5717 1134.93 67.8718C1136.61 67.1798 1138.08 67.0538 1139.42 67.5386C1140.77 68.0289 1142.24 69.2391 1143.7 71.7571L1146.3 70.2501C1144.62 67.3639 1142.68 65.5294 1140.44 64.7188C1138.2 63.9026 1135.92 64.2195 1133.79 65.0983C1131.68 65.9694 1129.6 67.4312 1127.64 69.0772C1125.68 70.7299 1123.75 72.6347 1121.94 74.4429L1124.06 76.5642ZM1143.7 71.7571C1150.32 83.1419 1165.73 92.1463 1186.3 98.4919C1206.96 104.864 1233.17 108.658 1261.83 109.369C1319.15 110.791 1386.6 99.8934 1439.69 72.3313L1438.31 69.6687C1385.79 96.9371 1318.87 107.783 1261.91 106.37C1233.43 105.664 1207.52 101.896 1187.19 95.6252C1166.77 89.3275 1152.31 80.6074 1146.3 70.2501L1143.7 71.7571ZM1044.57 113.565C1036.38 115.986 1030.09 121.09 1026.68 126.925C1023.27 132.749 1022.67 139.478 1026.25 144.838L1028.75 143.17C1025.98 139.029 1026.26 133.579 1029.27 128.439C1032.27 123.309 1037.91 118.662 1045.43 116.442L1044.57 113.565ZM1026.25 144.838C1027.39 146.534 1029.25 147.943 1031.47 149.057C1033.71 150.18 1036.43 151.053 1039.41 151.621C1045.38 152.756 1052.56 152.701 1059.45 150.844C1066.35 148.984 1073.02 145.299 1077.83 139.119C1082.66 132.925 1085.51 124.357 1085 112.936L1082 113.071C1082.49 123.9 1079.78 131.734 1075.46 137.276C1071.14 142.832 1065.09 146.217 1058.67 147.947C1052.25 149.679 1045.53 149.73 1039.98 148.674C1037.2 148.146 1034.76 147.349 1032.81 146.374C1030.85 145.391 1029.49 144.276 1028.75 143.17L1026.25 144.838ZM1056.25 152.304C1061.15 149.485 1066.09 146.199 1070.09 142.558C1074.07 138.935 1077.25 134.845 1078.45 130.392L1075.55 129.615C1074.57 133.264 1071.87 136.882 1068.07 140.339C1064.29 143.778 1059.56 146.941 1054.75 149.703L1056.25 152.304ZM1078.45 130.392C1080.13 124.125 1078.37 117.761 1072.52 114.096C1066.79 110.507 1057.51 109.744 1044.57 113.565L1045.43 116.442C1058.01 112.725 1066.26 113.715 1070.93 116.638C1075.47 119.484 1076.95 124.39 1075.55 129.615L1078.45 130.392ZM-1 166.5C-1.03683 168 -1.03439 168 -1.02956 168C-1.02474 168 -1.01751 168 -1.00789 168C-0.988659 168.001 -0.959854 168.001 -0.921535 168.002C-0.844899 168.004 -0.730209 168.007 -0.577928 168.011C-0.273365 168.018 0.181565 168.029 0.783176 168.044C1.9864 168.072 3.77634 168.115 6.12352 168.17C10.8179 168.28 17.7411 168.438 26.6573 168.635C44.4898 169.029 70.294 169.574 102.182 170.179C165.959 171.39 254.073 172.842 351.423 173.811C546.107 175.748 777.776 175.749 925.579 167.998L925.421 165.002C777.724 172.747 546.143 172.748 351.452 170.811C254.114 169.843 166.01 168.39 102.239 167.179C70.3544 166.574 44.5532 166.029 26.7235 165.636C17.8087 165.439 10.8867 165.28 6.19362 165.171C3.84707 165.116 2.05773 165.073 0.855099 165.044C0.253783 165.03 -0.200855 165.019 -0.50513 165.012C-0.657267 165.008 -0.771813 165.005 -0.848307 165.003C-0.886554 165.002 -0.915288 165.002 -0.934452 165.001C-0.944034 165.001 -0.951214 165.001 -0.956012 165.001C-0.960793 165.001 -0.963173 165 -1 166.5ZM978.554 167.118C1017.75 165.703 1035.9 162.789 1044.94 159.784C1049.5 158.266 1051.82 156.696 1053.36 155.219C1054.08 154.519 1054.64 153.821 1055.05 153.358C1055.48 152.871 1055.81 152.553 1056.25 152.304L1054.75 149.703C1053.9 150.195 1053.31 150.8 1052.8 151.374C1052.27 151.971 1051.89 152.471 1051.28 153.059C1050.14 154.158 1048.23 155.526 1043.99 156.938C1035.41 159.793 1017.64 162.705 978.446 164.12L978.554 167.118ZM925.275 165.017C925.519 164.98 926.132 164.964 926.61 165.493C927.025 165.951 927.004 166.468 926.994 166.604C926.981 166.79 926.935 166.929 926.917 166.983C926.893 167.051 926.87 167.103 926.856 167.132C926.828 167.191 926.803 167.233 926.794 167.248C926.782 167.267 926.774 167.28 926.77 167.285C926.762 167.297 926.772 167.282 926.814 167.228C926.891 167.128 927.028 166.962 927.225 166.737C927.618 166.289 928.227 165.634 929.042 164.847C930.673 163.271 933.11 161.182 936.26 159.162C942.562 155.119 951.655 151.386 962.852 152.496L963.148 149.511C951.091 148.315 941.328 152.346 934.64 156.637C931.296 158.782 928.705 161.002 926.958 162.689C926.084 163.533 925.417 164.248 924.968 164.76C924.745 165.015 924.57 165.227 924.448 165.384C924.39 165.458 924.328 165.541 924.276 165.619C924.259 165.644 924.2 165.732 924.146 165.845C924.142 165.853 924.024 166.081 924.002 166.391C923.992 166.529 923.971 167.048 924.386 167.506C924.865 168.036 925.479 168.02 925.725 167.983L925.275 165.017ZM955.437 188.935C967.371 185.303 976.242 176.732 979.918 166.11L977.082 165.129C973.737 174.796 965.629 182.697 954.563 186.065L955.437 188.935ZM954.563 186.065C948.884 187.793 945.283 188.331 942.033 188.033C938.761 187.732 935.711 186.577 931.085 184.619L929.915 187.381C934.512 189.327 937.962 190.672 941.759 191.02C945.579 191.371 949.616 190.707 955.437 188.935L954.563 186.065ZM931.521 184.901C927.543 181.207 925.817 178.338 925.306 175.729C924.796 173.122 925.439 170.488 926.881 167.085L924.119 165.915C922.612 169.47 921.675 172.796 922.362 176.305C923.048 179.812 925.296 183.214 929.479 187.099L931.521 184.901ZM962.852 152.496C974.687 153.67 977.515 157.377 978.095 159.843L981.015 159.157C979.972 154.719 975.316 150.718 963.148 149.511L962.852 152.496ZM978.095 159.843C978.392 161.109 978.193 162.348 977.884 163.318C977.731 163.796 977.559 164.187 977.427 164.454C977.361 164.587 977.307 164.688 977.271 164.75C977.253 164.782 977.24 164.804 977.233 164.815C977.23 164.821 977.228 164.825 977.227 164.825C977.227 164.826 977.227 164.825 977.228 164.825C977.228 164.824 977.228 164.823 977.229 164.823C977.229 164.822 977.229 164.822 977.23 164.821C977.23 164.821 977.23 164.821 977.23 164.82C977.231 164.82 977.231 164.82 978.5 165.619C979.769 166.419 979.769 166.418 979.77 166.418C979.77 166.418 979.77 166.417 979.77 166.417C979.771 166.416 979.771 166.415 979.772 166.415C979.773 166.413 979.774 166.411 979.775 166.41C979.777 166.406 979.78 166.401 979.783 166.396C979.789 166.386 979.798 166.373 979.807 166.357C979.826 166.325 979.852 166.281 979.882 166.228C979.943 166.12 980.024 165.97 980.117 165.782C980.302 165.408 980.536 164.876 980.742 164.229C981.15 162.948 981.479 161.128 981.015 159.157L978.095 159.843ZM978.056 159.564L982.001 252.564L984.999 252.436L981.054 159.436L978.056 159.564ZM983.5 252.5C985 252.5 985 252.5 985 252.5C985 252.5 985 252.5 985 252.5C985 252.5 985 252.5 985 252.5C985 252.5 985 252.5 985 252.5C985 252.499 985 252.499 985 252.499C985 252.499 985 252.499 985 252.499C985 252.499 985 252.499 985 252.499C985 252.499 985 252.498 985 252.498C985 252.498 985 252.498 985 252.498C985 252.498 985 252.497 985 252.497C985 252.497 985 252.497 985 252.497C985 252.496 985 252.496 985 252.496C985 252.496 985 252.496 985 252.495C985 252.495 985 252.495 985 252.495C985 252.494 985 252.494 985 252.494C985 252.494 985 252.493 985 252.493C985 252.493 985 252.493 985 252.492C985 252.492 985 252.492 985 252.491C985 252.491 985 252.491 985 252.49C985 252.49 985 252.49 985 252.489C985 252.489 985 252.489 985 252.488C985 252.488 985 252.488 985 252.487C985 252.487 985 252.487 985 252.486C985 252.486 985 252.485 985 252.485C985 252.485 985 252.484 985 252.484C985 252.483 985 252.483 985 252.483C985 252.482 985 252.482 985 252.481C985 252.481 985 252.48 985 252.48C985 252.48 985 252.479 985 252.479C985 252.478 985 252.478 985 252.477C985 252.477 985 252.476 985 252.476C985 252.475 985 252.475 985 252.474C985 252.474 985 252.473 985 252.473C985 252.472 985 252.472 985 252.471C985 252.471 985 252.47 985 252.47C985 252.469 985 252.469 985 252.468C985 252.468 985 252.467 985 252.466C985 252.466 985 252.465 985 252.465C985 252.464 985 252.464 985 252.463C985 252.463 985 252.462 985 252.461C985 252.461 985 252.46 985 252.46C985 252.459 985 252.458 985 252.458C985 252.457 985 252.457 985 252.456C985 252.455 985 252.455 985 252.454C985 252.454 985 252.453 985 252.452C985 252.452 985 252.451 985 252.45C985 252.45 985 252.449 985 252.448C985 252.448 985 252.447 985 252.446C985 252.446 985 252.445 985 252.444C985 252.444 985 252.443 985 252.442C985 252.442 985 252.441 985 252.44C985 252.44 985 252.439 985 252.438C985 252.438 985 252.437 985 252.436C985 252.436 985 252.435 985 252.434C985 252.433 985 252.433 985 252.432C985 252.431 985 252.431 985 252.43C985 252.429 985 252.428 985 252.428C985 252.427 985 252.426 985 252.426C985 252.425 985 252.424 985 252.423C985 252.423 985 252.422 985 252.421C985 252.42 985 252.42 985 252.419C985 252.418 985 252.417 985 252.417C985 252.416 985 252.415 985 252.414C985 252.414 985 252.413 985 252.412C985 252.411 985 252.411 985 252.41C985 252.409 985 252.408 985 252.408C985 252.407 985 252.406 985 252.405C985 252.404 985 252.404 985 252.403C985 252.402 985 252.401 985 252.4C985 252.4 985 252.399 985 252.398C985 252.397 985 252.397 985 252.396C985 252.395 985 252.394 985 252.393C985 252.393 985 252.392 985 252.391C985 252.39 985 252.389 985 252.389C985 252.388 985 252.387 985 252.386C985 252.385 985 252.385 985 252.384C985 252.383 985 252.382 985 252.381C985 252.381 985 252.38 985 252.379C985 252.378 985 252.377 985 252.377C985 252.376 985 252.375 985 252.374C985 252.373 985 252.372 985 252.372C985 252.371 985 252.37 985 252.369C985 252.368 985 252.368 985 252.367C985 252.366 985 252.365 985 252.364C985 252.364 985 252.363 985 252.362C985 252.361 985 252.36 985 252.359C985 252.359 985 252.358 985 252.357C985 252.356 985 252.355 985 252.355C985 252.354 985 252.353 985 252.352C985 252.351 985 252.351 985 252.35C985 252.349 985 252.348 985 252.347C985 252.346 985 252.346 985 252.345C985 252.344 985 252.343 985 252.342C985 252.342 985 252.341 985 252.34C985 252.339 985 252.338 985 252.338C985 252.337 985 252.336 985 252.335C985 252.334 985 252.334 985 252.333C985 252.332 985 252.331 985 252.33C985 252.33 985 252.329 985 252.328C985 252.327 985 252.326 985 252.326C985 252.325 985 252.324 985 252.323C985 252.323 985 252.322 985 252.321C985 252.32 985 252.319 985 252.319C985 252.318 985 252.317 985 252.316C985 252.315 985 252.315 985 252.314C985 252.313 985 252.312 985 252.312C985 252.311 985 252.31 985 252.309C985 252.309 985 252.308 985 252.307C985 252.306 985 252.306 985 252.305C985 252.304 985 252.303 985 252.303C985 252.302 985 252.301 985 252.3C985 252.3 985 252.299 985 252.298C985 252.297 985 252.297 985 252.296C985 252.295 985 252.294 985 252.294C985 252.293 985 252.292 985 252.292C985 252.291 985 252.29 985 252.289C985 252.289 985 252.288 985 252.287C985 252.287 985 252.286 985 252.285C985 252.285 985 252.284 985 252.283C985 252.283 985 252.282 985 252.281C985 252.28 985 252.28 985 252.279C985 252.278 985 252.278 985 252.277C985 252.276 985 252.276 985 252.275C985 252.274 985 252.274 985 252.273C985 252.273 985 252.272 985 252.271C985 252.271 985 252.27 985 252.269C985 252.269 985 252.268 985 252.267C985 252.267 985 252.266 985 252.266C985 252.265 985 252.264 985 252.264C985 252.263 985 252.263 985 252.262C985 252.261 985 252.261 985 252.26C985 252.26 985 252.259 985 252.259C985 252.258 985 252.257 985 252.257C985 252.256 985 252.256 985 252.255C985 252.255 985 252.254 985 252.254C985 252.253 985 252.252 985 252.252C985 252.251 985 252.251 985 252.25C985 252.25 985 252.249 985 252.249C985 252.248 985 252.248 985 252.247C985 252.247 985 252.246 985 252.246C985 252.245 985 252.245 985 252.244C985 252.244 985 252.244 985 252.243C985 252.243 985 252.242 985 252.242C985 252.241 985 252.241 985 252.24C985 252.24 985 252.24 985 252.239C985 252.239 985 252.238 985 252.238C985 252.238 985 252.237 985 252.237C985 252.236 985 252.236 985 252.236C985 252.235 985 252.235 985 252.235C985 252.234 985 252.234 985 252.233C985 252.233 985 252.233 985 252.232C985 252.232 985 252.232 985 252.231C985 252.231 985 252.231 985 252.231C985 252.23 985 252.23 985 252.23C985 252.229 985 252.229 985 252.229C985 252.229 985 252.228 985 252.228C985 252.228 985 252.228 985 252.227C985 252.227 985 252.227 985 252.227C985 252.226 985 252.226 985 252.226C985 252.226 985 252.226 985 252.225C985 252.225 985 252.225 985 252.225C985 252.225 985 252.224 985 252.224C985 252.224 985 252.224 985 252.224C985 252.224 985 252.224 985 252.223C985 252.223 985 252.223 985 252.223C985 252.223 985 252.223 985 252.223C985 252.223 985 252.223 985 252.223C985 252.223 985 252.222 985 252.222C985 252.222 985 252.222 985 252.222C985 252.222 985 252.222 985 252.222C985 252.222 983.5 252.222 982 252.222C982 252.222 982 252.222 982 252.222C982 252.222 982 252.222 982 252.222C982 252.222 982 252.222 982 252.223C982 252.223 982 252.223 982 252.223C982 252.223 982 252.223 982 252.223C982 252.223 982 252.223 982 252.223C982 252.224 982 252.224 982 252.224C982 252.224 982 252.224 982 252.224C982 252.224 982 252.225 982 252.225C982 252.225 982 252.225 982 252.225C982 252.226 982 252.226 982 252.226C982 252.226 982 252.227 982 252.227C982 252.227 982 252.227 982 252.228C982 252.228 982 252.228 982 252.228C982 252.229 982 252.229 982 252.229C982 252.23 982 252.23 982 252.23C982 252.231 982 252.231 982 252.231C982 252.232 982 252.232 982 252.233C982 252.233 982 252.233 982 252.234C982 252.234 982 252.235 982 252.235C982 252.235 982 252.236 982 252.236C982 252.237 982 252.237 982 252.238C982 252.238 982 252.239 982 252.239C982 252.24 982 252.24 982 252.241C982 252.241 982 252.242 982 252.242C982 252.243 982 252.244 982 252.244C982 252.245 982 252.245 982 252.246C982 252.246 982 252.247 982 252.248C982 252.248 982 252.249 982 252.25C982 252.25 982 252.251 982 252.252C982 252.252 982 252.253 982 252.254C982 252.254 982 252.255 982 252.256C982 252.257 982 252.257 982 252.258C982 252.259 982 252.26 982 252.26C982 252.261 982 252.262 982 252.263C982 252.264 982 252.265 982 252.265C982 252.266 982 252.267 982 252.268C982 252.269 982 252.27 982 252.271C982 252.271 982 252.272 982 252.273C982 252.274 982 252.275 982 252.276C982 252.277 982 252.278 982 252.279C982 252.28 982 252.281 982 252.282C982 252.283 982 252.284 982 252.285C982 252.286 982 252.287 982 252.288C982 252.289 982 252.29 982 252.291C982 252.293 982 252.294 982 252.295C982 252.296 982 252.297 982 252.298C982 252.299 982 252.3 982 252.302C982 252.303 982 252.304 982 252.305C982 252.306 982 252.308 982 252.309C982 252.31 982 252.311 982 252.313C982 252.314 982 252.315 982 252.317C982 252.318 982 252.319 982 252.321C982 252.322 982 252.323 982 252.325C982 252.326 982 252.327 982 252.329C982 252.33 982 252.332 982 252.333C982 252.334 982 252.336 982 252.337C982 252.339 982 252.34 982 252.342C982 252.343 982 252.345 982 252.346C982 252.348 982 252.349 982 252.351C982 252.352 982 252.354 982 252.356C982 252.357 982 252.359 982 252.36C982 252.362 982 252.364 982 252.365C982 252.367 982 252.369 982 252.37C982 252.372 982 252.374 982 252.376C982 252.377 982 252.379 982 252.381C982 252.382 982 252.384 982 252.386C982 252.388 982 252.39 982 252.391C982 252.393 982 252.395 982 252.397C982 252.399 982 252.401 982 252.403C982 252.405 982 252.406 982 252.408C982 252.41 982 252.412 982 252.414C982 252.416 982 252.418 982 252.42C982 252.422 982 252.424 982 252.426C982 252.428 982 252.43 982 252.432C982 252.434 982 252.437 982 252.439C982 252.441 982 252.443 982 252.445C982 252.447 982 252.449 982 252.451C982 252.454 982 252.456 982 252.458C982 252.46 982 252.463 982 252.465C982 252.467 982 252.469 982 252.472C982 252.474 982 252.476 982 252.479C982 252.481 982 252.483 982 252.486C982 252.488 982 252.49 982 252.493C982 252.495 982 252.498 982 252.5C982 252.502 982 252.505 982 252.507C982 252.51 982 252.512 982 252.515C982 252.517 982 252.52 982 252.522C982 252.525 982 252.528 982 252.53C982 252.533 982 252.535 982 252.538C982 252.541 982 252.543 982 252.546C982 252.549 982 252.551 982 252.554C982 252.557 982 252.56 982 252.562C982 252.565 982 252.568 982 252.571C982 252.573 982 252.576 982 252.579C982 252.582 982 252.585 982 252.588C982 252.591 982 252.593 982 252.596C982 252.599 982 252.602 982 252.605C982 252.608 982 252.611 982 252.614C982 252.617 982 252.62 982 252.623C982 252.626 982 252.629 982 252.632C982 252.635 982 252.638 982 252.642C982 252.645 982 252.648 982 252.651C982 252.654 982 252.657 982 252.661C982 252.664 982 252.667 982 252.67C982 252.674 982 252.677 982 252.68C982 252.683 982 252.687 982 252.69C982 252.693 982 252.697 982 252.7C982 252.703 982 252.707 982 252.71C982 252.714 982 252.717 982 252.721C982 252.724 982 252.728 982 252.731C982 252.735 982 252.738 982 252.742C982 252.745 982 252.749 982 252.752C982 252.756 982 252.76 982 252.763C982 252.767 982 252.771 982 252.774C982 252.778 982 252.782 982 252.785C982 252.789 982 252.793 982 252.797C982 252.8 982 252.804 982 252.808C982 252.812 982 252.816 982 252.82C982 252.823 982 252.827 982 252.831C982 252.835 982 252.839 982 252.843C982 252.847 982 252.851 982 252.855C982 252.859 982 252.863 982 252.867C982 252.871 982 252.875 982 252.879C982 252.883 982 252.888 982 252.892C982 252.896 982 252.9 982 252.904C982 252.908 982 252.913 982 252.917C982 252.921 982 252.925 982 252.93C982 252.934 982 252.938 982 252.943C982 252.947 982 252.951 982 252.956C982 252.96 982 252.964 982 252.969C982 252.973 982 252.978 982 252.982C982 252.987 982 252.991 982 252.996C982 253 982 253.005 982 253.009C982 253.014 982 253.019 982 253.023C982 253.028 982 253.033 982 253.037C982 253.042 982 253.047 982 253.051C982 253.056 982 253.061 982 253.066C982 253.07 982 253.075 982 253.08C982 253.085 982 253.09 982 253.095C982 253.099 982 253.104 982 253.109C982 253.114 982 253.119 982 253.124C982 253.129 982 253.134 982 253.139C982 253.144 982 253.149 982 253.154C982 253.159 982 253.164 982 253.17C982 253.175 982 253.18 982 253.185C982 253.19 982 253.195 982 253.201C982 253.206 982 253.211 982 253.216C982 253.222 982 253.227 982 253.232C982 253.238 982 253.243 982 253.249C982 253.254 982 253.259 982 253.265C982 253.27 982 253.276 982 253.281C982 253.287 982 253.292 982 253.298C982 253.303 982 253.309 982 253.315C982 253.32 982 253.326 982 253.331C982 253.337 982 253.343 982 253.348C982 253.354 982 253.36 982 253.366C982 253.371 982 253.377 982 253.383C982 253.389 982 253.395 982 253.401C982 253.406 982 253.412 982 253.418C982 253.424 982 253.43 982 253.436C982 253.442 982 253.448 982 253.454C982 253.46 982 253.466 982 253.472C982 253.479 982 253.485 982 253.491C982 253.497 982 253.503 982 253.509C982 253.516 982 253.522 982 253.528C982 253.534 982 253.541 982 253.547C982 253.553 982 253.56 982 253.566C982 253.572 982 253.579 982 253.585C982 253.592 982 253.598 982 253.605C982 253.611 982 253.618 982 253.624C982 253.631 982 253.637 982 253.644C982 253.651 982 253.657 982 253.664C982 253.67 982 253.677 982 253.684C982 253.691 982 253.697 982 253.704C982 253.711 982 253.718 982 253.725C982 253.731 982 253.738 982 253.745C982 253.752 982 253.759 982 253.766C982 253.773 982 253.78 982 253.787C982 253.794 982 253.801 982 253.808C982 253.815 982 253.822 982 253.829C982 253.836 982 253.844 982 253.851C982 253.858 982 253.865 982 253.872C982 253.88 982 253.887 982 253.894C982 253.902 982 253.909 982 253.916C982 253.924 982 253.931 982 253.939C982 253.946 982 253.953 982 253.961C982 253.968 982 253.976 982 253.984C982 253.991 982 253.999 982 254.006C982 254.014 982 254.022 982 254.029C982 254.037 982 254.045 982 254.052C982 254.06 982 254.068 982 254.076C982 254.084 982 254.091 982 254.099C982 254.107 982 254.115 982 254.123C982 254.131 982 254.139 982 254.147C982 254.155 982 254.163 982 254.171C982 254.179 982 254.187 982 254.195C982 254.203 982 254.211 982 254.22C982 254.228 982 254.236 982 254.244C982 254.252 982 254.261 982 254.269C982 254.277 982 254.286 982 254.294C982 254.302 982 254.311 982 254.319C982 254.328 982 254.336 982 254.345C982 254.353 982 254.362 982 254.37C982 254.379 982 254.387 982 254.396C982 254.405 982 254.413 982 254.422C982 254.431 982 254.439 982 254.448C982 254.457 982 254.466 982 254.475C982 254.483 982 254.492 982 254.501C982 254.51 982 254.519 982 254.528C982 254.537 982 254.546 982 254.555C982 254.564 982 254.573 982 254.582C982 254.591 982 254.6 982 254.609C982 254.619 982 254.628 982 254.637C982 254.646 982 254.655 982 254.665C982 254.674 982 254.683 982 254.693C982 254.702 982 254.711 982 254.721C982 254.73 982 254.74 982 254.749C982 254.759 982 254.768 982 254.778C982 254.787 982 254.797 982 254.807C982 254.816 982 254.826 982 254.836C982 254.845 982 254.855 982 254.865C982 254.875 982 254.884 982 254.894C982 254.904 982 254.914 982 254.924C982 254.934 982 254.944 982 254.954C982 254.964 982 254.974 982 254.984C982 254.994 982 255.004 982 255.014C982 255.024 982 255.034 982 255.044C982 255.054 982 255.065 982 255.075C982 255.085 982 255.095 982 255.106C982 255.116 982 255.126 982 255.137C982 255.147 982 255.158 982 255.168C982 255.179 982 255.189 982 255.2C982 255.21 982 255.221 982 255.231C982 255.242 982 255.253 982 255.263C982 255.274 982 255.285 982 255.295C982 255.306 982 255.317 982 255.328C982 255.339 982 255.349 982 255.36C982 255.371 982 255.382 982 255.393C982 255.404 982 255.415 982 255.426C982 255.437 982 255.448 982 255.459C982 255.47 982 255.482 982 255.493C982 255.504 982 255.515 982 255.526C982 255.538 982 255.549 982 255.56C982 255.572 982 255.583 982 255.594C982 255.606 982 255.617 982 255.629C982 255.64 982 255.652 982 255.663C982 255.675 982 255.687 982 255.698C982 255.71 982 255.721 982 255.733C982 255.745 982 255.757 982 255.768C982 255.78 982 255.792 982 255.804C982 255.816 982 255.828 982 255.839C982 255.851 982 255.863 982 255.875C982 255.887 982 255.899 982 255.911C982 255.924 982 255.936 982 255.948C982 255.96 982 255.972 982 255.984C982 255.997 982 256.009 982 256.021C982 256.034 982 256.046 982 256.058C982 256.071 982 256.083 982 256.096C982 256.108 982 256.121 982 256.133C982 256.146 982 256.158 982 256.171C982 256.183 982 256.196 982 256.209C982 256.221 982 256.234 982 256.247C982 256.26 982 256.273 982 256.285C982 256.298 982 256.311 982 256.324C982 256.337 982 256.35 982 256.363C982 256.376 982 256.389 982 256.402C982 256.415 982 256.428 982 256.441C982 256.455 982 256.468 982 256.481C982 256.494 982 256.508 982 256.521C982 256.534 982 256.548 982 256.561C982 256.574 982 256.588 982 256.601C982 256.615 982 256.628 982 256.642C982 256.656 982 256.669 982 256.683C982 256.696 982 256.71 982 256.724C982 256.738 982 256.751 982 256.765C982 256.779 982 256.793 982 256.807C982 256.821 982 256.834 982 256.848C982 256.862 982 256.876 982 256.89C982 256.904 982 256.919 982 256.933C982 256.947 982 256.961 982 256.975C982 256.989 982 257.004 982 257.018C982 257.032 982 257.047 982 257.061C982 257.075 982 257.09 982 257.104C982 257.119 982 257.133 982 257.148C982 257.162 982 257.177 982 257.191C982 257.206 982 257.221 982 257.235C982 257.25 982 257.265 982 257.28C982 257.295 982 257.309 982 257.324C982 257.339 982 257.354 982 257.369C982 257.384 982 257.399 982 257.414C982 257.429 982 257.444 982 257.459C982 257.474 982 257.49 982 257.505C982 257.52 982 257.535 982 257.55C982 257.566 982 257.581 982 257.597C982 257.612 982 257.627 982 257.643C982 257.658 982 257.674 982 257.689C982 257.705 982 257.72 982 257.736C982 257.752 982 257.767 982 257.783C982 257.799 982 257.815 982 257.83C982 257.846 982 257.862 982 257.878C982 257.894 982 257.91 982 257.926C982 257.942 982 257.958 982 257.974C982 257.99 982 258.006 982 258.022C982 258.038 982 258.055 982 258.071C982 258.087 982 258.103 982 258.12C982 258.136 982 258.152 982 258.169C982 258.185 982 258.202 982 258.218C982 258.235 982 258.251 982 258.268C982 258.284 982 258.301 982 258.318C982 258.334 982 258.351 982 258.368C982 258.385 982 258.401 982 258.418C982 258.435 982 258.452 982 258.469C982 258.486 982 258.503 982 258.52C982 258.537 982 258.554 982 258.571C982 258.588 982 258.606 982 258.623C982 258.64 982 258.657 982 258.675C982 258.692 982 258.709 982 258.727C982 258.744 982 258.762 982 258.779C982 258.796 982 258.814 982 258.832C982 258.849 982 258.867 982 258.884C982 258.902 982 258.92 982 258.938C982 258.955 982 258.973 982 258.991C982 259.009 982 259.027 982 259.045C982 259.063 982 259.081 982 259.099C982 259.117 982 259.135 982 259.153C982 259.171 982 259.189 982 259.207C982 259.226 982 259.244 982 259.262C982 259.281 982 259.299 982 259.317C982 259.336 982 259.354 982 259.373C982 259.391 982 259.41 982 259.428C982 259.447 982 259.465 982 259.484C982 259.503 982 259.522 982 259.54C982 259.559 982 259.578 982 259.597C982 259.616 982 259.635 982 259.654C982 259.673 982 259.692 982 259.711C982 259.73 982 259.749 982 259.768C982 259.787 982 259.806 982 259.826C982 259.845 982 259.864 982 259.883C982 259.903 982 259.922 982 259.942C982 259.961 982 259.98 982 260H985C985 259.98 985 259.961 985 259.942C985 259.922 985 259.903 985 259.883C985 259.864 985 259.845 985 259.826C985 259.806 985 259.787 985 259.768C985 259.749 985 259.73 985 259.711C985 259.692 985 259.673 985 259.654C985 259.635 985 259.616 985 259.597C985 259.578 985 259.559 985 259.54C985 259.522 985 259.503 985 259.484C985 259.465 985 259.447 985 259.428C985 259.41 985 259.391 985 259.373C985 259.354 985 259.336 985 259.317C985 259.299 985 259.281 985 259.262C985 259.244 985 259.226 985 259.207C985 259.189 985 259.171 985 259.153C985 259.135 985 259.117 985 259.099C985 259.081 985 259.063 985 259.045C985 259.027 985 259.009 985 258.991C985 258.973 985 258.955 985 258.938C985 258.92 985 258.902 985 258.884C985 258.867 985 258.849 985 258.832C985 258.814 985 258.796 985 258.779C985 258.762 985 258.744 985 258.727C985 258.709 985 258.692 985 258.675C985 258.657 985 258.64 985 258.623C985 258.606 985 258.588 985 258.571C985 258.554 985 258.537 985 258.52C985 258.503 985 258.486 985 258.469C985 258.452 985 258.435 985 258.418C985 258.401 985 258.385 985 258.368C985 258.351 985 258.334 985 258.318C985 258.301 985 258.284 985 258.268C985 258.251 985 258.235 985 258.218C985 258.202 985 258.185 985 258.169C985 258.152 985 258.136 985 258.12C985 258.103 985 258.087 985 258.071C985 258.055 985 258.038 985 258.022C985 258.006 985 257.99 985 257.974C985 257.958 985 257.942 985 257.926C985 257.91 985 257.894 985 257.878C985 257.862 985 257.846 985 257.83C985 257.815 985 257.799 985 257.783C985 257.767 985 257.752 985 257.736C985 257.72 985 257.705 985 257.689C985 257.674 985 257.658 985 257.643C985 257.627 985 257.612 985 257.597C985 257.581 985 257.566 985 257.55C985 257.535 985 257.52 985 257.505C985 257.49 985 257.474 985 257.459C985 257.444 985 257.429 985 257.414C985 257.399 985 257.384 985 257.369C985 257.354 985 257.339 985 257.324C985 257.309 985 257.295 985 257.28C985 257.265 985 257.25 985 257.235C985 257.221 985 257.206 985 257.191C985 257.177 985 257.162 985 257.148C985 257.133 985 257.119 985 257.104C985 257.09 985 257.075 985 257.061C985 257.047 985 257.032 985 257.018C985 257.004 985 256.989 985 256.975C985 256.961 985 256.947 985 256.933C985 256.919 985 256.904 985 256.89C985 256.876 985 256.862 985 256.848C985 256.834 985 256.821 985 256.807C985 256.793 985 256.779 985 256.765C985 256.751 985 256.738 985 256.724C985 256.71 985 256.696 985 256.683C985 256.669 985 256.656 985 256.642C985 256.628 985 256.615 985 256.601C985 256.588 985 256.574 985 256.561C985 256.548 985 256.534 985 256.521C985 256.508 985 256.494 985 256.481C985 256.468 985 256.455 985 256.441C985 256.428 985 256.415 985 256.402C985 256.389 985 256.376 985 256.363C985 256.35 985 256.337 985 256.324C985 256.311 985 256.298 985 256.285C985 256.273 985 256.26 985 256.247C985 256.234 985 256.221 985 256.209C985 256.196 985 256.183 985 256.171C985 256.158 985 256.146 985 256.133C985 256.121 985 256.108 985 256.096C985 256.083 985 256.071 985 256.058C985 256.046 985 256.034 985 256.021C985 256.009 985 255.997 985 255.984C985 255.972 985 255.96 985 255.948C985 255.936 985 255.924 985 255.911C985 255.899 985 255.887 985 255.875C985 255.863 985 255.851 985 255.839C985 255.828 985 255.816 985 255.804C985 255.792 985 255.78 985 255.768C985 255.757 985 255.745 985 255.733C985 255.721 985 255.71 985 255.698C985 255.687 985 255.675 985 255.663C985 255.652 985 255.64 985 255.629C985 255.617 985 255.606 985 255.594C985 255.583 985 255.572 985 255.56C985 255.549 985 255.538 985 255.526C985 255.515 985 255.504 985 255.493C985 255.482 985 255.47 985 255.459C985 255.448 985 255.437 985 255.426C985 255.415 985 255.404 985 255.393C985 255.382 985 255.371 985 255.36C985 255.349 985 255.339 985 255.328C985 255.317 985 255.306 985 255.295C985 255.285 985 255.274 985 255.263C985 255.253 985 255.242 985 255.231C985 255.221 985 255.21 985 255.2C985 255.189 985 255.179 985 255.168C985 255.158 985 255.147 985 255.137C985 255.126 985 255.116 985 255.106C985 255.095 985 255.085 985 255.075C985 255.065 985 255.054 985 255.044C985 255.034 985 255.024 985 255.014C985 255.004 985 254.994 985 254.984C985 254.974 985 254.964 985 254.954C985 254.944 985 254.934 985 254.924C985 254.914 985 254.904 985 254.894C985 254.884 985 254.875 985 254.865C985 254.855 985 254.845 985 254.836C985 254.826 985 254.816 985 254.807C985 254.797 985 254.787 985 254.778C985 254.768 985 254.759 985 254.749C985 254.74 985 254.73 985 254.721C985 254.711 985 254.702 985 254.693C985 254.683 985 254.674 985 254.665C985 254.655 985 254.646 985 254.637C985 254.628 985 254.619 985 254.609C985 254.6 985 254.591 985 254.582C985 254.573 985 254.564 985 254.555C985 254.546 985 254.537 985 254.528C985 254.519 985 254.51 985 254.501C985 254.492 985 254.483 985 254.475C985 254.466 985 254.457 985 254.448C985 254.439 985 254.431 985 254.422C985 254.413 985 254.405 985 254.396C985 254.387 985 254.379 985 254.37C985 254.362 985 254.353 985 254.345C985 254.336 985 254.328 985 254.319C985 254.311 985 254.302 985 254.294C985 254.286 985 254.277 985 254.269C985 254.261 985 254.252 985 254.244C985 254.236 985 254.228 985 254.22C985 254.211 985 254.203 985 254.195C985 254.187 985 254.179 985 254.171C985 254.163 985 254.155 985 254.147C985 254.139 985 254.131 985 254.123C985 254.115 985 254.107 985 254.099C985 254.091 985 254.084 985 254.076C985 254.068 985 254.06 985 254.052C985 254.045 985 254.037 985 254.029C985 254.022 985 254.014 985 254.006C985 253.999 985 253.991 985 253.984C985 253.976 985 253.968 985 253.961C985 253.953 985 253.946 985 253.939C985 253.931 985 253.924 985 253.916C985 253.909 985 253.902 985 253.894C985 253.887 985 253.88 985 253.872C985 253.865 985 253.858 985 253.851C985 253.844 985 253.836 985 253.829C985 253.822 985 253.815 985 253.808C985 253.801 985 253.794 985 253.787C985 253.78 985 253.773 985 253.766C985 253.759 985 253.752 985 253.745C985 253.738 985 253.731 985 253.725C985 253.718 985 253.711 985 253.704C985 253.697 985 253.691 985 253.684C985 253.677 985 253.67 985 253.664C985 253.657 985 253.651 985 253.644C985 253.637 985 253.631 985 253.624C985 253.618 985 253.611 985 253.605C985 253.598 985 253.592 985 253.585C985 253.579 985 253.572 985 253.566C985 253.56 985 253.553 985 253.547C985 253.541 985 253.534 985 253.528C985 253.522 985 253.516 985 253.509C985 253.503 985 253.497 985 253.491C985 253.485 985 253.479 985 253.472C985 253.466 985 253.46 985 253.454C985 253.448 985 253.442 985 253.436C985 253.43 985 253.424 985 253.418C985 253.412 985 253.406 985 253.401C985 253.395 985 253.389 985 253.383C985 253.377 985 253.371 985 253.366C985 253.36 985 253.354 985 253.348C985 253.343 985 253.337 985 253.331C985 253.326 985 253.32 985 253.315C985 253.309 985 253.303 985 253.298C985 253.292 985 253.287 985 253.281C985 253.276 985 253.27 985 253.265C985 253.259 985 253.254 985 253.249C985 253.243 985 253.238 985 253.232C985 253.227 985 253.222 985 253.216C985 253.211 985 253.206 985 253.201C985 253.195 985 253.19 985 253.185C985 253.18 985 253.175 985 253.17C985 253.164 985 253.159 985 253.154C985 253.149 985 253.144 985 253.139C985 253.134 985 253.129 985 253.124C985 253.119 985 253.114 985 253.109C985 253.104 985 253.099 985 253.095C985 253.09 985 253.085 985 253.08C985 253.075 985 253.07 985 253.066C985 253.061 985 253.056 985 253.051C985 253.047 985 253.042 985 253.037C985 253.033 985 253.028 985 253.023C985 253.019 985 253.014 985 253.009C985 253.005 985 253 985 252.996C985 252.991 985 252.987 985 252.982C985 252.978 985 252.973 985 252.969C985 252.964 985 252.96 985 252.956C985 252.951 985 252.947 985 252.943C985 252.938 985 252.934 985 252.93C985 252.925 985 252.921 985 252.917C985 252.913 985 252.908 985 252.904C985 252.9 985 252.896 985 252.892C985 252.888 985 252.883 985 252.879C985 252.875 985 252.871 985 252.867C985 252.863 985 252.859 985 252.855C985 252.851 985 252.847 985 252.843C985 252.839 985 252.835 985 252.831C985 252.827 985 252.823 985 252.82C985 252.816 985 252.812 985 252.808C985 252.804 985 252.8 985 252.797C985 252.793 985 252.789 985 252.785C985 252.782 985 252.778 985 252.774C985 252.771 985 252.767 985 252.763C985 252.76 985 252.756 985 252.752C985 252.749 985 252.745 985 252.742C985 252.738 985 252.735 985 252.731C985 252.728 985 252.724 985 252.721C985 252.717 985 252.714 985 252.71C985 252.707 985 252.703 985 252.7C985 252.697 985 252.693 985 252.69C985 252.687 985 252.683 985 252.68C985 252.677 985 252.674 985 252.67C985 252.667 985 252.664 985 252.661C985 252.657 985 252.654 985 252.651C985 252.648 985 252.645 985 252.642C985 252.638 985 252.635 985 252.632C985 252.629 985 252.626 985 252.623C985 252.62 985 252.617 985 252.614C985 252.611 985 252.608 985 252.605C985 252.602 985 252.599 985 252.596C985 252.593 985 252.591 985 252.588C985 252.585 985 252.582 985 252.579C985 252.576 985 252.573 985 252.571C985 252.568 985 252.565 985 252.562C985 252.56 985 252.557 985 252.554C985 252.551 985 252.549 985 252.546C985 252.543 985 252.541 985 252.538C985 252.535 985 252.533 985 252.53C985 252.528 985 252.525 985 252.522C985 252.52 985 252.517 985 252.515C985 252.512 985 252.51 985 252.507C985 252.505 985 252.502 985 252.5C985 252.498 985 252.495 985 252.493C985 252.49 985 252.488 985 252.486C985 252.483 985 252.481 985 252.479C985 252.476 985 252.474 985 252.472C985 252.469 985 252.467 985 252.465C985 252.463 985 252.46 985 252.458C985 252.456 985 252.454 985 252.451C985 252.449 985 252.447 985 252.445C985 252.443 985 252.441 985 252.439C985 252.437 985 252.434 985 252.432C985 252.43 985 252.428 985 252.426C985 252.424 985 252.422 985 252.42C985 252.418 985 252.416 985 252.414C985 252.412 985 252.41 985 252.408C985 252.406 985 252.405 985 252.403C985 252.401 985 252.399 985 252.397C985 252.395 985 252.393 985 252.391C985 252.39 985 252.388 985 252.386C985 252.384 985 252.382 985 252.381C985 252.379 985 252.377 985 252.376C985 252.374 985 252.372 985 252.37C985 252.369 985 252.367 985 252.365C985 252.364 985 252.362 985 252.36C985 252.359 985 252.357 985 252.356C985 252.354 985 252.352 985 252.351C985 252.349 985 252.348 985 252.346C985 252.345 985 252.343 985 252.342C985 252.34 985 252.339 985 252.337C985 252.336 985 252.334 985 252.333C985 252.332 985 252.33 985 252.329C985 252.327 985 252.326 985 252.325C985 252.323 985 252.322 985 252.321C985 252.319 985 252.318 985 252.317C985 252.315 985 252.314 985 252.313C985 252.311 985 252.31 985 252.309C985 252.308 985 252.306 985 252.305C985 252.304 985 252.303 985 252.302C985 252.3 985 252.299 985 252.298C985 252.297 985 252.296 985 252.295C985 252.294 985 252.293 985 252.291C985 252.29 985 252.289 985 252.288C985 252.287 985 252.286 985 252.285C985 252.284 985 252.283 985 252.282C985 252.281 985 252.28 985 252.279C985 252.278 985 252.277 985 252.276C985 252.275 985 252.274 985 252.273C985 252.272 985 252.271 985 252.271C985 252.27 985 252.269 985 252.268C985 252.267 985 252.266 985 252.265C985 252.265 985 252.264 985 252.263C985 252.262 985 252.261 985 252.26C985 252.26 985 252.259 985 252.258C985 252.257 985 252.257 985 252.256C985 252.255 985 252.254 985 252.254C985 252.253 985 252.252 985 252.252C985 252.251 985 252.25 985 252.25C985 252.249 985 252.248 985 252.248C985 252.247 985 252.246 985 252.246C985 252.245 985 252.245 985 252.244C985 252.244 985 252.243 985 252.242C985 252.242 985 252.241 985 252.241C985 252.24 985 252.24 985 252.239C985 252.239 985 252.238 985 252.238C985 252.237 985 252.237 985 252.236C985 252.236 985 252.235 985 252.235C985 252.235 985 252.234 985 252.234C985 252.233 985 252.233 985 252.233C985 252.232 985 252.232 985 252.231C985 252.231 985 252.231 985 252.23C985 252.23 985 252.23 985 252.229C985 252.229 985 252.229 985 252.228C985 252.228 985 252.228 985 252.228C985 252.227 985 252.227 985 252.227C985 252.227 985 252.226 985 252.226C985 252.226 985 252.226 985 252.225C985 252.225 985 252.225 985 252.225C985 252.225 985 252.224 985 252.224C985 252.224 985 252.224 985 252.224C985 252.224 985 252.224 985 252.223C985 252.223 985 252.223 985 252.223C985 252.223 985 252.223 985 252.223C985 252.223 985 252.223 985 252.223C985 252.222 985 252.222 985 252.222C985 252.222 985 252.222 985 252.222C985 252.222 985 252.222 985 252.222C983.5 252.222 982 252.222 982 252.222C982 252.222 982 252.222 982 252.222C982 252.222 982 252.222 982 252.222C982 252.222 982 252.223 982 252.223C982 252.223 982 252.223 982 252.223C982 252.223 982 252.223 982 252.223C982 252.223 982 252.223 982 252.223C982 252.224 982 252.224 982 252.224C982 252.224 982 252.224 982 252.224C982 252.224 982 252.225 982 252.225C982 252.225 982 252.225 982 252.225C982 252.226 982 252.226 982 252.226C982 252.226 982 252.226 982 252.227C982 252.227 982 252.227 982 252.227C982 252.228 982 252.228 982 252.228C982 252.228 982 252.229 982 252.229C982 252.229 982 252.229 982 252.23C982 252.23 982 252.23 982 252.231C982 252.231 982 252.231 982 252.231C982 252.232 982 252.232 982 252.232C982 252.233 982 252.233 982 252.233C982 252.234 982 252.234 982 252.235C982 252.235 982 252.235 982 252.236C982 252.236 982 252.236 982 252.237C982 252.237 982 252.238 982 252.238C982 252.238 982 252.239 982 252.239C982 252.24 982 252.24 982 252.24C982 252.241 982 252.241 982 252.242C982 252.242 982 252.243 982 252.243C982 252.244 982 252.244 982 252.244C982 252.245 982 252.245 982 252.246C982 252.246 982 252.247 982 252.247C982 252.248 982 252.248 982 252.249C982 252.249 982 252.25 982 252.25C982 252.251 982 252.251 982 252.252C982 252.252 982 252.253 982 252.254C982 252.254 982 252.255 982 252.255C982 252.256 982 252.256 982 252.257C982 252.257 982 252.258 982 252.259C982 252.259 982 252.26 982 252.26C982 252.261 982 252.261 982 252.262C982 252.263 982 252.263 982 252.264C982 252.264 982 252.265 982 252.266C982 252.266 982 252.267 982 252.267C982 252.268 982 252.269 982 252.269C982 252.27 982 252.271 982 252.271C982 252.272 982 252.273 982 252.273C982 252.274 982 252.274 982 252.275C982 252.276 982 252.276 982 252.277C982 252.278 982 252.278 982 252.279C982 252.28 982 252.28 982 252.281C982 252.282 982 252.283 982 252.283C982 252.284 982 252.285 982 252.285C982 252.286 982 252.287 982 252.287C982 252.288 982 252.289 982 252.289C982 252.29 982 252.291 982 252.292C982 252.292 982 252.293 982 252.294C982 252.294 982 252.295 982 252.296C982 252.297 982 252.297 982 252.298C982 252.299 982 252.3 982 252.3C982 252.301 982 252.302 982 252.303C982 252.303 982 252.304 982 252.305C982 252.306 982 252.306 982 252.307C982 252.308 982 252.309 982 252.309C982 252.31 982 252.311 982 252.312C982 252.312 982 252.313 982 252.314C982 252.315 982 252.315 982 252.316C982 252.317 982 252.318 982 252.319C982 252.319 982 252.32 982 252.321C982 252.322 982 252.323 982 252.323C982 252.324 982 252.325 982 252.326C982 252.326 982 252.327 982 252.328C982 252.329 982 252.33 982 252.33C982 252.331 982 252.332 982 252.333C982 252.334 982 252.334 982 252.335C982 252.336 982 252.337 982 252.338C982 252.338 982 252.339 982 252.34C982 252.341 982 252.342 982 252.342C982 252.343 982 252.344 982 252.345C982 252.346 982 252.346 982 252.347C982 252.348 982 252.349 982 252.35C982 252.351 982 252.351 982 252.352C982 252.353 982 252.354 982 252.355C982 252.355 982 252.356 982 252.357C982 252.358 982 252.359 982 252.359C982 252.36 982 252.361 982 252.362C982 252.363 982 252.364 982 252.364C982 252.365 982 252.366 982 252.367C982 252.368 982 252.368 982 252.369C982 252.37 982 252.371 982 252.372C982 252.372 982 252.373 982 252.374C982 252.375 982 252.376 982 252.377C982 252.377 982 252.378 982 252.379C982 252.38 982 252.381 982 252.381C982 252.382 982 252.383 982 252.384C982 252.385 982 252.385 982 252.386C982 252.387 982 252.388 982 252.389C982 252.389 982 252.39 982 252.391C982 252.392 982 252.393 982 252.393C982 252.394 982 252.395 982 252.396C982 252.397 982 252.397 982 252.398C982 252.399 982 252.4 982 252.4C982 252.401 982 252.402 982 252.403C982 252.404 982 252.404 982 252.405C982 252.406 982 252.407 982 252.408C982 252.408 982 252.409 982 252.41C982 252.411 982 252.411 982 252.412C982 252.413 982 252.414 982 252.414C982 252.415 982 252.416 982 252.417C982 252.417 982 252.418 982 252.419C982 252.42 982 252.42 982 252.421C982 252.422 982 252.423 982 252.423C982 252.424 982 252.425 982 252.426C982 252.426 982 252.427 982 252.428C982 252.428 982 252.429 982 252.43C982 252.431 982 252.431 982 252.432C982 252.433 982 252.433 982 252.434C982 252.435 982 252.436 982 252.436C982 252.437 982 252.438 982 252.438C982 252.439 982 252.44 982 252.44C982 252.441 982 252.442 982 252.442C982 252.443 982 252.444 982 252.444C982 252.445 982 252.446 982 252.446C982 252.447 982 252.448 982 252.448C982 252.449 982 252.45 982 252.45C982 252.451 982 252.452 982 252.452C982 252.453 982 252.454 982 252.454C982 252.455 982 252.455 982 252.456C982 252.457 982 252.457 982 252.458C982 252.458 982 252.459 982 252.46C982 252.46 982 252.461 982 252.461C982 252.462 982 252.463 982 252.463C982 252.464 982 252.464 982 252.465C982 252.465 982 252.466 982 252.466C982 252.467 982 252.468 982 252.468C982 252.469 982 252.469 982 252.47C982 252.47 982 252.471 982 252.471C982 252.472 982 252.472 982 252.473C982 252.473 982 252.474 982 252.474C982 252.475 982 252.475 982 252.476C982 252.476 982 252.477 982 252.477C982 252.478 982 252.478 982 252.479C982 252.479 982 252.48 982 252.48C982 252.48 982 252.481 982 252.481C982 252.482 982 252.482 982 252.483C982 252.483 982 252.483 982 252.484C982 252.484 982 252.485 982 252.485C982 252.485 982 252.486 982 252.486C982 252.487 982 252.487 982 252.487C982 252.488 982 252.488 982 252.488C982 252.489 982 252.489 982 252.489C982 252.49 982 252.49 982 252.49C982 252.491 982 252.491 982 252.491C982 252.492 982 252.492 982 252.492C982 252.493 982 252.493 982 252.493C982 252.493 982 252.494 982 252.494C982 252.494 982 252.494 982 252.495C982 252.495 982 252.495 982 252.495C982 252.496 982 252.496 982 252.496C982 252.496 982 252.496 982 252.497C982 252.497 982 252.497 982 252.497C982 252.497 982 252.498 982 252.498C982 252.498 982 252.498 982 252.498C982 252.498 982 252.499 982 252.499C982 252.499 982 252.499 982 252.499C982 252.499 982 252.499 982 252.499C982 252.499 982 252.499 982 252.5C982 252.5 982 252.5 982 252.5C982 252.5 982 252.5 982 252.5C982 252.5 982 252.5 982 252.5C982 252.5 982 252.5 983.5 252.5ZM982 260C982 261.685 982.68 263.103 983.977 264.018C985.208 264.885 986.817 265.176 988.504 265.084C991.884 264.898 996.196 263.15 1000.53 259.885C1009.25 253.308 1018.44 240.303 1020.99 219.684L1018.01 219.316C1015.56 239.197 1006.75 251.442 998.722 257.49C994.679 260.537 990.928 261.946 988.34 262.088C987.043 262.159 986.19 261.908 985.706 261.566C985.289 261.272 985 260.815 985 260H982ZM1020.99 219.684C1022.23 209.594 1023.53 203.253 1024.71 199.364C1025.3 197.417 1025.84 196.135 1026.3 195.32C1026.53 194.915 1026.72 194.652 1026.87 194.486C1027.02 194.319 1027.1 194.284 1027.09 194.289C1027.06 194.301 1026.96 194.34 1026.8 194.318C1026.66 194.296 1026.56 194.233 1026.52 194.198C1026.47 194.157 1026.52 194.188 1026.54 194.297C1026.55 194.338 1026.54 194.321 1026.55 194.246C1026.56 194.198 1026.6 193.903 1026.91 193.641C1027.28 193.315 1027.71 193.322 1027.93 193.381C1028.1 193.424 1028.11 193.48 1027.98 193.361L1026.02 195.639C1026.32 195.895 1026.71 196.158 1027.16 196.28C1027.67 196.416 1028.33 196.374 1028.87 195.908C1029.33 195.506 1029.48 194.982 1029.52 194.655C1029.57 194.301 1029.54 193.955 1029.47 193.657C1029.35 193.085 1029.03 192.394 1028.45 191.901C1028.14 191.641 1027.73 191.42 1027.23 191.348C1026.73 191.275 1026.23 191.371 1025.79 191.586C1024.95 191.988 1024.27 192.806 1023.69 193.846C1023.08 194.924 1022.46 196.435 1021.84 198.496C1020.59 202.622 1019.27 209.156 1018.01 219.316L1020.99 219.684Z" fill="white"/>
</svg>
