<svg width="33" height="36" viewBox="0 0 33 36" fill="none" xmlns="http://www.w3.org/2000/svg">
<g id="Group">
<path id="Vector" d="M23 34.1875C27.3493 34.1875 30.875 30.6618 30.875 26.3125C30.875 21.9632 27.3493 18.4375 23 18.4375C18.6507 18.4375 15.125 21.9632 15.125 26.3125C15.125 30.6618 18.6507 34.1875 23 34.1875Z" stroke="#1A355F" stroke-width="3" stroke-linecap="round" stroke-linejoin="round"/>
<path id="Vector_2" d="M23 23.1625V26.1156L24.575 27.8875" stroke="#1A355F" stroke-width="3" stroke-linecap="round" stroke-linejoin="round"/>
<path id="Vector_3" d="M2 15.8125H10.75" stroke="#1A355F" stroke-width="3" stroke-linecap="round" stroke-linejoin="round"/>
<path id="Vector_4" d="M30 12.3125V8.8125C30 6.8795 28.433 5.3125 26.5 5.3125H5.5C3.567 5.3125 2 6.8795 2 8.8125V29.8125C2 31.7455 3.567 33.3125 5.5 33.3125H10.75" stroke="#1A355F" stroke-width="3" stroke-linecap="round" stroke-linejoin="round"/>
<path id="Vector_5" d="M21.25 1.8125V8.8125" stroke="#1A355F" stroke-width="3" stroke-linecap="round" stroke-linejoin="round"/>
<path id="Vector_6" d="M10.75 1.8125V8.8125" stroke="#1A355F" stroke-width="3" stroke-linecap="round" stroke-linejoin="round"/>
</g>
</svg>
