<svg xmlns="http://www.w3.org/2000/svg" width="1440" height="175" viewBox="0 0 1440 175" fill="none">
<path d="M0 166.5C0 166.5 631 181.996 926.5 166.5C1060.72 166.263 1050.39 154.516 1056.5 151.004C1066.22 145.422 1075.83 138.105 1078 130.004C1081.08 118.511 1071.51 107.465 1046 115.004C1030.29 119.645 1022.14 134.504 1028.5 144.004C1036 155.215 1086.5 157.504 1084.5 113.004C1082.5 68.5036 1071.32 -26.8877 1088.5 10.5036C1097 29.0036 1094 32.5036 1104.5 40.0036C1110 43.9322 1118.5 42.5037 1126 55.0037C1133.5 67.5037 1134.71 75.3995 1130 80.5036C1124 87.0036 1117.5 82.0036 1124 75.5036C1131.24 68.2626 1133.5 71.0036 1146 71.0036C1156 71.0036 1315.17 71 1440 71" stroke="white" stroke-width="3"/>
</svg>