<svg width="1441" height="219" viewBox="0 0 1441 219" fill="none" xmlns="http://www.w3.org/2000/svg">
<path d="M1 210.5C1 210.5 632 225.996 927.5 210.5C1061.72 210.263 1051.39 198.516 1057.5 195.004C1067.22 189.422 1076.83 182.105 1079 174.004C1082.08 162.511 1072.51 151.465 1047 159.004C1031.29 163.645 1023.14 178.504 1029.5 188.004C1037 199.215 1087.5 201.504 1085.5 157.004C1083.5 112.504 1070.81 -6.74825 1089.5 54.5039C1108.19 115.756 1014.95 32.9085 1013.5 10.5036V127.004C1014.54 150.055 1001.48 160.552 987.619 163.756M1060 193.526C1067.5 206.026 1146 151.004 1140.5 151.004C1141.21 150.597 1141.92 150.181 1142.62 149.756M1441 115C1332.79 115 1208.84 115.003 1168.56 115.004M1172.5 10.5036C1155.32 -26.8877 1166.5 68.5036 1168.5 113.004C1169.54 136.055 1156.48 146.552 1142.62 149.756M1142.62 149.756C1129.72 152.738 1116.11 149.407 1112.5 144.004C1106.14 134.504 1114.29 119.645 1130 115.004C1155.51 107.465 1165.08 118.511 1162 130.004C1159.99 137.515 1151.58 144.352 1142.62 149.756ZM987.619 163.756C974.719 166.738 961.115 163.407 957.5 158.004C951.145 148.504 959.29 133.645 975 129.004C1000.51 121.465 1010.08 132.511 1007 144.004C1004.99 151.515 996.577 158.352 987.619 163.756Z" stroke="#0A1A2E" stroke-width="3"/>
</svg>
